<?xml version="1.0" standalone="no"?>
<!DOCTYPE svg PUBLIC "-//W3C//DTD SVG 1.1//EN" "http://www.w3.org/Graphics/SVG/1.1/DTD/svg11.dtd" >
<svg xmlns="http://www.w3.org/2000/svg" xmlns:xlink="http://www.w3.org/1999/xlink" version="1.1">
<metadata>
Created by FontForge 20161003 at Mon Aug 28 20:58:32 2017
 By www-data
Copyright (c) 1989, 1990, 1999 Adobe Systems Incorporated.  All Rights Reserved.Eurostile is a registered trademark of Nebiolo S. A.
</metadata>
<defs>
<font id="EurostileLT-BoldCondensed" horiz-adv-x="464" >
  <font-face 
    font-family="Eurostile LT Condensed"
    font-weight="700"
    font-stretch="normal"
    units-per-em="1000"
    panose-1="2 0 8 6 5 0 0 2 0 4"
    ascent="800"
    descent="-200"
    x-height="510"
    cap-height="724"
    bbox="-166 -250 1000 964"
    underline-thickness="50"
    underline-position="-125"
    unicode-range="U+0020-FB02"
  />
<missing-glyph horiz-adv-x="250" 
 />
    <glyph glyph-name=".notdef" horiz-adv-x="250" 
 />
    <glyph glyph-name="space" unicode=" " horiz-adv-x="250" 
 />
    <glyph glyph-name="quotedbl" unicode="&#x22;" horiz-adv-x="407" 
d="M226 412h112v312h-112v-312zM69 412h112v312h-112v-312z" />
    <glyph glyph-name="numbersign" unicode="#" horiz-adv-x="500" 
d="M291 295h-99l17 134h99zM4 207h82l-28 -207h94l28 207h99l-28 -207h94l28 207h93v88h-81l17 134h94v88h-82l28 207h-94l-28 -207h-99l28 207h-94l-28 -207h-94v-88h82l-17 -134h-94v-88z" />
    <glyph glyph-name="dollar" unicode="$" horiz-adv-x="500" 
d="M223 451q-16 6 -25 13.5t-13.5 18t-5.5 25.5t-1 36q0 22 1 35t5.5 20.5t13.5 10.5t25 4v-163zM280 295q16 -7 25.5 -14.5t14 -17t5.5 -22.5t1 -32v-27q0 -21 -1 -34t-5.5 -21t-13.5 -11.5t-26 -4.5v184zM32 168q0 -57 13 -91.5t37 -53t57.5 -24.5t74.5 -7v-94h66v94
q50 2 86 11.5t58.5 32.5t33 61.5t10.5 97.5q0 58 -3.5 95.5t-20.5 62.5t-52.5 42.5t-99.5 34.5q-2 0 -2.5 0.5l-0.5 0.5v183q31 -1 38 -8t7 -26v-65h130v83q0 39 -8 64t-28 40.5t-54 22t-85 7.5v81h-66v-81q-58 -2 -94.5 -11.5t-57 -33.5t-28 -64t-7.5 -103q0 -55 8 -88
t28 -53.5t53 -33.5t83 -27l6 -2v-206q-16 1 -25.5 4t-14 9.5t-5.5 17.5t-1 28v60h-136v-61z" />
    <glyph glyph-name="percent" unicode="%" horiz-adv-x="870" 
d="M29 414q0 -78 35 -110.5t121 -32.5t121 32.5t35 110.5v175q0 78 -35 110.5t-121 32.5t-121 -32.5t-35 -110.5v-175zM141 586q0 18 9 26t35 8t35 -8t9 -26v-175q0 -18 -9 -26t-35 -8t-35 8t-9 26v175zM529 135q0 -78 35 -110.5t121 -32.5t121 32.5t35 110.5v175
q0 78 -35 110.5t-121 32.5t-121 -32.5t-35 -110.5v-175zM641 307q0 18 9 26t35 8t35 -8t9 -26v-175q0 -18 -9 -26t-35 -8t-35 8t-9 26v175zM185 -8h103l396 739h-103z" />
    <glyph glyph-name="ampersand" unicode="&#x26;" horiz-adv-x="556" 
d="M185 257q0 15 3.5 24.5t8 14.5t9 6.5t7.5 1.5q8 0 10 -3l97 -137q3 -4 3 -15t-2 -18.5t-9 -12t-21 -6.5t-37 -2t-36.5 2t-21 8.5t-9.5 18t-2 31.5v87zM37 137q0 -37 9 -64t29.5 -45t54 -27t82.5 -9h73q30 0 50 2t35 6.5t26.5 11.5t23.5 18q11 -24 28 -38l110 80l-86 123
v251h-130v-69h-2l-111 165q-3 5 -6 14.5t-3 20.5q0 19 7 28t29 9q26 0 36 -8t10 -34v-42h142v52q0 43 -8 71.5t-28.5 46t-56.5 25t-93 7.5t-93 -7.5t-56.5 -25t-28.5 -46t-8 -71.5q0 -22 4 -41t13 -38.5t23 -41.5t35 -49q-31 -3 -52 -15t-34 -29.5t-18.5 -40t-5.5 -47.5
v-143z" />
    <glyph glyph-name="quotesingle" unicode="'" horiz-adv-x="222" 
d="M55 412h112v312h-112v-312z" />
    <glyph glyph-name="parenleft" unicode="(" horiz-adv-x="333" 
d="M57 186q0 -104 41.5 -149t132.5 -45h45v118q-36 5 -50.5 27t-14.5 60v330q0 38 16.5 62.5t48.5 24.5v118h-45q-91 0 -132.5 -45t-41.5 -149v-352z" />
    <glyph glyph-name="parenright" unicode=")" horiz-adv-x="333" 
d="M57 -8h45q91 0 132.5 45t41.5 149v352q0 104 -41.5 149t-132.5 45h-45v-118q36 -5 50.5 -27t14.5 -60v-330q0 -38 -16.5 -62.5t-48.5 -24.5v-118z" />
    <glyph glyph-name="asterisk" unicode="*" 
d="M170 542l62 48l62 -48v-84l-62 -48l-62 48v84zM82 311l102 -47l47 140h2l47 -140l102 47l-82 147l142 -14v108l-142 -10l82 143l-103 47l-46 -136h-2l-46 136l-103 -47l82 -143l-142 10v-108l142 14z" />
    <glyph glyph-name="plus" unicode="+" horiz-adv-x="600" 
d="M47 197h197v-197h112v197h197v112h-197v197h-112v-197h-197v-112z" />
    <glyph glyph-name="comma" unicode="," horiz-adv-x="250" 
d="M56 -158q28 0 53.5 7t45.5 23.5t32 43.5t12 66v172h-148v-154h63q0 -5 0.5 -9.5t0.5 -9.5q0 -31 -14 -44.5t-45 -18.5v-76z" />
    <glyph glyph-name="hyphen" unicode="-" horiz-adv-x="333" 
d="M36 200h261v130h-261v-130z" />
    <glyph glyph-name="hyphen" unicode="&#xad;" horiz-adv-x="333" 
d="M36 200h261v130h-261v-130z" />
    <glyph glyph-name="period" unicode="." horiz-adv-x="250" 
d="M51 0h148v154h-148v-154z" />
    <glyph glyph-name="slash" unicode="/" horiz-adv-x="296" 
d="M-40 -8h119l257 740h-119z" />
    <glyph glyph-name="zero" unicode="0" horiz-adv-x="500" 
d="M208 581q0 19 9.5 26t32.5 7t32.5 -6t9.5 -21v-444q0 -19 -9.5 -26t-32.5 -7t-32.5 7t-9.5 26v438zM42 159q0 -51 11.5 -83.5t36.5 -51t64.5 -25.5t95.5 -7t95.5 7t64.5 25.5t36.5 51t11.5 83.5v385q0 59 -11.5 95.5t-36.5 57t-64.5 28t-95.5 7.5q-53 0 -92.5 -7.5
t-65.5 -28.5t-38.5 -57.5t-11.5 -94.5v-385z" />
    <glyph glyph-name="one" unicode="1" horiz-adv-x="500" 
d="M15 524l89 -87l107 163h2v-600h166v724h-210z" />
    <glyph glyph-name="two" unicode="2" horiz-adv-x="500" 
d="M56 457h154v126q0 31 34 31q9 0 15 -2t9.5 -9t5.5 -21t2 -37v-78q0 -25 -1.5 -40.5t-8.5 -26t-20.5 -18.5t-37.5 -19q-47 -21 -78 -43t-49 -47t-25 -55t-7 -68v-150h389v124h-235v22q0 23 5 39.5t17 29t31 24t48 24.5q49 22 77 39t41.5 40.5t16.5 60t3 97.5
q0 67 -3.5 111.5t-21.5 71.5t-57 38t-110 11q-47 0 -83 -6t-61 -23t-37.5 -48t-12.5 -82v-116z" />
    <glyph glyph-name="three" unicode="3" horiz-adv-x="500" 
d="M37 513h154v66q0 22 9.5 28.5t33.5 6.5q12 0 19.5 -2t12 -8t6.5 -18.5t2 -33.5q0 -42 -2.5 -66t-10.5 -36t-25 -15t-45 -3h-45v-118h71q22 0 35 -2t19.5 -12t8.5 -31t2 -58q0 -32 -1.5 -51.5t-6 -30.5t-14 -15t-25.5 -4q-30 0 -37 12t-7 37v82h-154v-102q0 -37 6.5 -64.5
t27 -46t59 -27.5t102.5 -9q67 0 108 10.5t63.5 34.5t30.5 62.5t8 94.5q0 46 -3 79.5t-13.5 55.5t-31 34.5t-56.5 17.5v2q31 5 49.5 14.5t29 29t14 52.5t3.5 87q0 45 -7.5 76.5t-29.5 51.5t-60.5 29t-100.5 9q-105 0 -152 -32.5t-47 -107.5v-79z" />
    <glyph glyph-name="four" unicode="4" horiz-adv-x="500" 
d="M19 149h250v-149h154v149h45v124h-45v451h-247l-157 -402v-173zM269 273h-120l118 363h2v-363z" />
    <glyph glyph-name="five" unicode="5" horiz-adv-x="500" 
d="M51 151q0 -51 12 -82.5t37 -48.5t61.5 -22.5t86.5 -5.5q41 0 77.5 4.5t64 21t43.5 48t16 84.5v221q0 46 -11.5 74t-30.5 42t-43.5 18.5t-51.5 4.5q-31 0 -58.5 -11t-40.5 -37h-2v138h207v124h-355v-392h136v30q0 17 9.5 23.5t33.5 6.5q23 0 32 -6.5t9 -23.5v-223
q0 -18 -11 -23.5t-27 -5.5q-17 0 -28.5 5.5t-11.5 23.5v81h-154v-69z" />
    <glyph glyph-name="six" unicode="6" horiz-adv-x="500" 
d="M210 305q0 22 8 31t34 9q27 0 35.5 -9t8.5 -31v-155q0 -22 -8.5 -31t-35.5 -9q-26 0 -34 9t-8 31v155zM44 140q0 -39 6.5 -67t28.5 -46t62.5 -26.5t108.5 -8.5q60 0 99.5 6.5t63 24t33.5 48t10 78.5v182q0 40 -10.5 64.5t-29 38t-45 18.5t-57.5 5q-36 0 -58 -10t-44 -38
h-2v169q0 20 9 28t32 8q24 0 33 -8t9 -28v-47h148v86q0 31 -8.5 52.5t-30.5 35.5t-60.5 20.5t-98.5 6.5q-55 0 -93 -7.5t-61.5 -24.5t-34 -46t-10.5 -71v-443z" />
    <glyph glyph-name="seven" unicode="7" horiz-adv-x="500" 
d="M51 600h204l-159 -600h168l155 601v123h-368v-124z" />
    <glyph glyph-name="eight" unicode="8" horiz-adv-x="500" 
d="M204 279q0 18 10 26.5t36 8.5t36 -8.5t10 -26.5v-134q0 -18 -10 -26.5t-36 -8.5t-36 8.5t-10 26.5v134zM204 578q0 20 10 28t36 8t36 -8t10 -28v-122q0 -20 -10 -28t-36 -8t-36 8t-10 28v122zM32 195q0 -59 13 -98t40 -62t68 -33t97 -10t97 10t68 33t40 62t13 98
q0 34 -2.5 63.5t-13.5 52.5t-32.5 39t-58.5 24v2l1 -1q29 8 47 19.5t28.5 29.5t14.5 44.5t4 64.5q0 50 -6 87.5t-27 62t-62 37t-111 12.5t-111 -12.5t-62 -37t-27 -62t-6 -87.5q0 -38 4 -64.5t14.5 -44.5t28.5 -29t47 -19v-2l1 1q-38 -8 -59 -24.5t-32 -39.5t-13.5 -52.5
t-2.5 -63.5z" />
    <glyph glyph-name="nine" unicode="9" horiz-adv-x="500" 
d="M203 580q0 20 9.5 27t37.5 7t37.5 -7t9.5 -27v-140q0 -21 -12 -29.5t-35 -8.5q-29 0 -38 9t-9 31v138zM43 125q0 -35 5 -60.5t23.5 -41.5t55 -23.5t99.5 -7.5q69 0 114.5 6.5t72.5 31t38.5 73t11.5 133.5v341q0 48 -10.5 78.5t-35.5 47.5t-65 23t-100 6q-75 0 -118 -9
t-64.5 -36t-27 -77t-5.5 -132q0 -52 4 -87.5t19 -58t45 -32.5t83 -10q22 0 38 3t27.5 9t20.5 16t17 24h4v-191q0 -26 -12.5 -33.5t-35.5 -7.5q-30 0 -37 8t-7 28v72h-160v-93z" />
    <glyph glyph-name="colon" unicode=":" horiz-adv-x="250" 
d="M51 0h148v154h-148v-154zM51 356h148v154h-148v-154z" />
    <glyph glyph-name="semicolon" unicode=";" horiz-adv-x="250" 
d="M56 -158q28 0 53.5 7t45.5 23.5t32 43.5t12 66v172h-148v-154h63q0 -5 0.5 -9.5t0.5 -9.5q0 -31 -14 -44.5t-45 -18.5v-76zM51 356h148v154h-148v-154z" />
    <glyph glyph-name="semicolon" unicode="&#x37e;" horiz-adv-x="250" 
d="M56 -158q28 0 53.5 7t45.5 23.5t32 43.5t12 66v172h-148v-154h63q0 -5 0.5 -9.5t0.5 -9.5q0 -31 -14 -44.5t-45 -18.5v-76zM51 356h148v154h-148v-154z" />
    <glyph glyph-name="less" unicode="&#x3c;" horiz-adv-x="600" 
d="M47 208l506 -216v108l-362 153l362 153v108l-506 -216v-90z" />
    <glyph glyph-name="equal" unicode="=" horiz-adv-x="600" 
d="M47 309h506v112h-506v-112zM47 85h506v112h-506v-112z" />
    <glyph glyph-name="greater" unicode="&#x3e;" horiz-adv-x="600" 
d="M47 -8l506 216v90l-506 216v-108l362 -153l-362 -153v-108z" />
    <glyph glyph-name="question" unicode="?" horiz-adv-x="426" 
d="M7 504h154v75q0 18 9 26.5t34 8.5q14 0 22.5 -2t13 -9.5t6 -22t1.5 -38.5q0 -30 -1.5 -48t-6.5 -30t-16 -21t-29 -21q-24 -15 -39 -27t-24 -25t-12 -29t-3 -40v-80h154v52q0 12 1.5 19.5t7.5 15t18 16.5t34 22t36.5 25t23.5 30.5t12.5 47.5t3.5 76q0 67 -8 108t-31.5 63
t-66.5 29t-113 7q-50 0 -84 -6.5t-56 -25t-31.5 -51t-9.5 -84.5v-61zM116 0h154v154h-154v-154z" />
    <glyph glyph-name="at" unicode="@" horiz-adv-x="800" 
d="M306 330q0 21 7.5 42.5t21.5 38t33.5 27t42.5 10.5q35 0 57 -23t22 -61q0 -21 -8 -41.5t-22.5 -36.5t-35 -26t-45.5 -10q-38 2 -55.5 23.5t-17.5 56.5zM520 495q-22 31 -53 45t-69 14q-48 0 -86.5 -20t-66 -52.5t-42.5 -75t-15 -87.5q0 -35 13.5 -67t36.5 -56t53 -38
t63 -14q37 0 60.5 14t40.5 38h2q1 -26 17 -39t39 -13q15 0 40.5 6t54 19.5t57.5 35.5t52.5 54t38 74.5t14.5 96.5q0 69 -30 125t-79 95t-113 60.5t-131 21.5q-80 0 -150.5 -28.5t-123 -78t-83 -117t-30.5 -146.5q0 -87 31.5 -156t85 -117t124.5 -73t151 -24q95 0 172 39.5
t131 113.5l-93 4q-39 -32 -90 -50.5t-110 -18.5q-65 0 -119.5 20t-93.5 56.5t-61 88.5t-22 117q0 60 19.5 111.5t56 89.5t87.5 59.5t114 21.5q57 0 106 -16t85.5 -47t57 -76.5t20.5 -105.5q0 -38 -10 -67.5t-25 -49.5t-33.5 -30.5t-34.5 -10.5q-13 0 -13 14q0 7 1.5 16.5
t5.5 28.5l51 243h-92z" />
    <glyph glyph-name="A" unicode="A" horiz-adv-x="520" 
d="M300 298h-80l39 326h2zM16 0h169l21 174h108l21 -174h169l-109 724h-270z" />
    <glyph glyph-name="B" unicode="B" horiz-adv-x="538" 
d="M221 601l-2 -1h42q36 0 45 -14t9 -49v-44q0 -36 -9 -50t-45 -14h-40v172zM55 0h272q49 0 81 11t51 35t26.5 63.5t7.5 96.5q0 33 -4.5 62.5t-17 52t-36 37t-62.5 17.5v2q38 6 59.5 20.5t32.5 36t13.5 50.5t2.5 65q0 54 -8 88.5t-28.5 53.5t-55.5 26t-89 7h-245v-724z
M221 311h49q29 0 40 -13t11 -53v-54q0 -41 -10 -54t-41 -13h-49v187z" />
    <glyph glyph-name="C" unicode="C" horiz-adv-x="500" 
d="M45 147q0 -71 37.5 -113t129.5 -42h62q52 0 88.5 8t58.5 27.5t32 52t10 80.5v107h-160v-114q0 -31 -43 -31t-43 31v418q0 31 44 31q42 0 42 -31v-95h160v132q0 31 -9 54.5t-31 39t-58.5 23t-90.5 7.5h-62q-92 0 -129.5 -44.5t-37.5 -131.5v-409z" />
    <glyph glyph-name="D" unicode="D" horiz-adv-x="520" 
d="M221 600h44q27 0 35.5 -14.5t8.5 -55.5v-330q0 -41 -8.5 -55.5t-35.5 -14.5h-44v470zM55 0h216q58 0 97 9t63 37.5t34 82t10 142.5v181q0 89 -10 143t-34 82.5t-63 37.5t-97 9h-216v-724z" />
    <glyph glyph-name="E" unicode="E" horiz-adv-x="426" 
d="M55 0h331v130h-165v181h142v124h-142v159h153v130h-319v-724z" />
    <glyph glyph-name="F" unicode="F" horiz-adv-x="389" 
d="M55 0h166v285h134v130h-134v179h147v130h-313v-724z" />
    <glyph glyph-name="G" unicode="G" horiz-adv-x="520" 
d="M45 141q0 -44 14 -73t41.5 -46t67.5 -23.5t92 -6.5q60 0 101 6t66.5 24t36.5 50t11 85v233h-211v-136h51v-114q0 -11 -11 -17.5t-42 -6.5q-25 0 -35 6.5t-10 20.5v420q0 27 10 36t34 9q32 0 43 -8.5t11 -33.5v-76h160v71q0 56 -15 89.5t-43 51.5t-68 24t-89 6
q-52 0 -92 -6.5t-67.5 -23.5t-41.5 -46t-14 -73v-442z" />
    <glyph glyph-name="H" unicode="H" horiz-adv-x="538" 
d="M55 0h166v311h96v-311h166v724h-166v-283h-96v283h-166v-724z" />
    <glyph glyph-name="I" unicode="I" horiz-adv-x="296" 
d="M65 0h166v724h-166v-724z" />
    <glyph glyph-name="J" unicode="J" horiz-adv-x="426" 
d="M15 122q0 -30 6.5 -54.5t24.5 -41t51 -25.5t86 -9q54 0 92 7.5t61.5 25.5t34 47.5t10.5 73.5v578h-166v-574q0 -14 -4.5 -21t-21.5 -7t-21.5 7t-4.5 21v111h-148v-139z" />
    <glyph glyph-name="K" unicode="K" horiz-adv-x="520" 
d="M55 0h166v321l-1 2h2l124 -323h178l-159 380l141 344h-178l-106 -307h-2l1 2v305h-166v-724z" />
    <glyph glyph-name="L" unicode="L" horiz-adv-x="407" 
d="M55 0h327v130h-161v594h-166v-724z" />
    <glyph glyph-name="M" unicode="M" horiz-adv-x="796" 
d="M297 0h190l107 610h2l-6 -610h151v724h-261l-81 -570h-2l-81 570h-261v-724h148v612h2z" />
    <glyph glyph-name="N" unicode="N" horiz-adv-x="630" 
d="M327 0h242v724h-154l12 -562l-2 -2l-122 564h-242v-724h153l-10 564h2z" />
    <glyph glyph-name="O" unicode="O" horiz-adv-x="520" 
d="M303 150q0 -20 -10 -27t-33 -7t-33 7t-10 27v424q0 20 10 27t33 7t33 -7t10 -27v-424zM45 141q0 -44 14 -73t41.5 -46t67.5 -23.5t92 -6.5t92 6.5t67.5 23.5t41.5 46t14 73v442q0 44 -14 73t-41.5 46t-67.5 23.5t-92 6.5t-92 -6.5t-67.5 -23.5t-41.5 -46t-14 -73v-442z
" />
    <glyph glyph-name="P" unicode="P" horiz-adv-x="500" 
d="M55 0h166v206h56q56 0 94.5 9.5t62.5 33.5t34.5 66t10.5 107v126q0 99 -47.5 137.5t-137.5 38.5h-239v-724zM221 336v258h48q22 0 30 -6.5t8 -24.5v-174q0 -30 -9.5 -41.5t-27.5 -11.5h-49z" />
    <glyph glyph-name="Q" unicode="Q" horiz-adv-x="520" 
d="M217 574q0 20 10 27t33 7t33 -7t10 -27v-277h-2l-18 28l-51 -67l71 -102v-6q0 -20 -10 -27t-33 -7t-33 7t-10 27v424zM45 141q0 -44 14 -73t41.5 -46t67.5 -23.5t92 -6.5q45 0 81 5t61 17l41 -59l56 68l-36 50q12 28 12 68v442q0 44 -14 73t-41.5 46t-67.5 23.5t-92 6.5
t-92 -6.5t-67.5 -23.5t-41.5 -46t-14 -73v-442z" />
    <glyph glyph-name="R" unicode="R" horiz-adv-x="538" 
d="M221 600h50q27 0 39 -13t12 -41v-109q0 -35 -12.5 -49t-56.5 -14h-32v226zM55 0h166v250h28q42 0 57.5 -10t15.5 -33v-207h166v197q0 33 -7.5 53.5t-21.5 33t-35 19t-49 12.5v2q26 4 47 12.5t35.5 24.5t22.5 42.5t8 67.5v87q0 51 -10.5 84.5t-36.5 53t-70 27.5t-111 8
h-205v-724z" />
    <glyph glyph-name="S" unicode="S" horiz-adv-x="500" 
d="M195 238h-154v-60q0 -54 8 -90t31 -57t64.5 -30t109.5 -9q53 0 91.5 7.5t64 29.5t37.5 62.5t12 105.5q0 70 -6 110.5t-26 64.5t-59.5 38.5t-105.5 31.5q-18 4 -30 8.5t-19 11.5t-9.5 18t-2.5 28v48q0 26 7 39t40 13q16 0 25 -2t14 -8.5t6.5 -20.5t1.5 -38v-35h148v87
q0 38 -10 64.5t-32.5 43.5t-59 25t-90.5 8q-59 0 -99.5 -5.5t-65 -24.5t-35 -56t-10.5 -100v-44q0 -48 6 -79.5t22.5 -52.5t47 -34t78.5 -25q33 -8 52 -13.5t29.5 -12.5t13.5 -18t3 -30v-78q0 -23 -10.5 -33t-38.5 -10q-18 0 -28 4t-14.5 12.5t-5.5 21.5t-1 32v52z" />
    <glyph glyph-name="T" unicode="T" horiz-adv-x="426" 
d="M130 0h166v594h116v130h-398v-130h116v-594z" />
    <glyph glyph-name="U" unicode="U" horiz-adv-x="520" 
d="M470 724h-166v-556q0 -21 -9.5 -33.5t-34.5 -12.5t-34.5 12.5t-9.5 33.5v556h-166v-551q0 -60 14 -96t41 -55t66 -24.5t89 -5.5t89 5.5t66 24.5t41 55t14 96v551z" />
    <glyph glyph-name="V" unicode="V" horiz-adv-x="500" 
d="M109 0h282l96 724h-170l-66 -636h-2l-66 636h-170z" />
    <glyph glyph-name="W" unicode="W" horiz-adv-x="796" 
d="M94 0h234l69 600h2l69 -600h234l81 724h-160l-45 -618h-2l-66 618h-224l-66 -618h-2l-45 618h-160z" />
    <glyph glyph-name="X" unicode="X" horiz-adv-x="500" 
d="M21 0h169l59 323h2l59 -323h169l-90 380l82 344h-163l-57 -303h-2l-57 303h-163l82 -344z" />
    <glyph glyph-name="Y" unicode="Y" 
d="M152 0h160v234l152 490h-164l-67 -326h-2l-67 326h-164l152 -490v-234z" />
    <glyph glyph-name="Z" unicode="Z" horiz-adv-x="426" 
d="M44 594h167l-186 -470v-124h364v130h-185l185 468v126h-345v-130z" />
    <glyph glyph-name="bracketleft" unicode="[" horiz-adv-x="333" 
d="M57 0h219v118h-65v488h65v118h-219v-724z" />
    <glyph glyph-name="backslash" unicode="\" horiz-adv-x="296" 
d="M217 -8h119l-257 740h-119z" />
    <glyph glyph-name="bracketright" unicode="]" horiz-adv-x="333" 
d="M122 118h-65v-118h219v724h-219v-118h65v-488z" />
    <glyph glyph-name="asciicircum" unicode="^" horiz-adv-x="600" 
d="M70 349h110l120 263l120 -263h110l-180 375h-100z" />
    <glyph glyph-name="underscore" unicode="_" horiz-adv-x="500" 
d="M0 -125h500v50h-500v-50z" />
    <glyph glyph-name="grave" unicode="`" horiz-adv-x="242" 
d="M104 576h99l-92 148h-155z" />
    <glyph glyph-name="a" unicode="a" horiz-adv-x="444" 
d="M45 364h130v28q0 14 9.5 20t26.5 6q38 0 38 -25v-113q-21 17 -46 25t-52 8q-30 0 -54 -7t-40.5 -24.5t-25 -47.5t-8.5 -77q0 -39 5 -70t18.5 -52t37.5 -32t62 -11q21 0 36 2t26.5 7.5t22 15.5t22.5 26h2v-43h142v374q0 47 -11 75.5t-34 43.5t-59 20t-85 5q-42 0 -73 -3.5
t-51 -13.5t-29.5 -27.5t-9.5 -45.5v-64zM177 176q0 26 9 34.5t27 8.5q22 0 29 -8.5t7 -28.5v-41q0 -15 -6.5 -26t-29.5 -11q-20 0 -27.5 9t-8.5 34v29z" />
    <glyph glyph-name="b" unicode="b" 
d="M195 372q0 28 34 28t34 -28v-234q0 -28 -34 -28t-34 28v234zM47 0h141v53h2q11 -20 21.5 -32t23 -18.5t27.5 -8.5t34 -2q34 0 57.5 7t37.5 23.5t20 43t6 65.5v284q0 30 -8.5 49.5t-23.5 31.5t-35 17t-44 5q-40 0 -65.5 -13.5t-43.5 -39.5h-2v259h-148v-724z" />
    <glyph glyph-name="c" unicode="c" horiz-adv-x="444" 
d="M37 154q0 -51 12.5 -83t37.5 -49.5t61.5 -23.5t84.5 -6q60 0 94.5 9.5t52 29.5t22.5 50.5t5 72.5v45h-136v-48q0 -26 -9 -36.5t-31 -10.5t-31 10.5t-9 36.5v208q0 26 9 36.5t31 10.5t31 -10.5t9 -36.5v-26h130v87q0 31 -15.5 50t-39.5 29.5t-52.5 14.5t-54.5 4
q-50 0 -88 -6t-63.5 -23.5t-38 -49.5t-12.5 -83v-202z" />
    <glyph glyph-name="d" unicode="d" 
d="M47 131q0 -39 6 -65.5t20 -43t36.5 -23.5t56.5 -7q20 0 35 2t28 8.5t23.5 18.5t21.5 32h2v-53h141v724h-148v-259h-2q-18 26 -43.5 39.5t-65.5 13.5q-24 0 -44 -5t-35 -17t-23.5 -31.5t-8.5 -49.5v-284zM201 372q0 28 34 28t34 -28v-234q0 -28 -34 -28t-34 28v234z" />
    <glyph glyph-name="e" unicode="e" 
d="M37 154q0 -51 12.5 -83t37.5 -49.5t61 -23.5t84 -6q56 0 93.5 6.5t60 22t32 42t9.5 66.5v29h-150v-24q0 -23 -10 -29.5t-32 -6.5q-29 0 -36.5 7.5t-7.5 27.5v86h236v158q0 30 -7.5 56t-29 44.5t-59.5 29.5t-99 11q-48 0 -84 -6t-61 -23.5t-37.5 -49.5t-12.5 -83v-202z
M191 388q0 16 7.5 23t33.5 7t33.5 -7t7.5 -23v-75h-82v75z" />
    <glyph glyph-name="f" unicode="f" horiz-adv-x="278" 
d="M10 398h42v-398h148v398h71v112h-71v77q0 21 14 30t38 9h7q4 0 7 -0.5t7 -1.5v104q-20 3 -40 3.5t-40 0.5q-29 0 -54.5 -8.5t-45 -24t-30.5 -37.5t-11 -50v-102h-42v-112z" />
    <glyph glyph-name="g" unicode="g" 
d="M195 376q0 17 8.5 23.5t28.5 6.5t28.5 -6.5t8.5 -23.5v-244q0 -17 -8.5 -23.5t-28.5 -6.5t-28.5 6.5t-8.5 23.5v244zM47 121q0 -26 5.5 -48.5t19 -39.5t36.5 -27t58 -10q66 0 101 47h2v-91q0 -20 -9 -27t-29 -7q-38 0 -38 23v11h-130v-27q0 -25 7.5 -46t25.5 -36
t47.5 -23t73.5 -8q51 0 88.5 6t62 22t37 43.5t12.5 71.5v555h-137v-47h-2q-24 32 -51.5 43.5t-71.5 11.5q-52 0 -80 -34t-28 -100v-263z" />
    <glyph glyph-name="h" unicode="h" 
d="M47 0h148v365q0 17 8 26t28 9q21 0 29.5 -9t8.5 -26v-365h148v401q0 33 -9 55.5t-24.5 36t-37 19.5t-45.5 6q-36 0 -62 -15t-42 -49h-2v270h-148v-724z" />
    <glyph glyph-name="i" unicode="i" horiz-adv-x="242" 
d="M47 0h148v510h-148v-510zM47 606h148v118h-148v-118z" />
    <glyph glyph-name="j" unicode="j" horiz-adv-x="242" 
d="M3 -183q17 -2 33.5 -3.5t30.5 -1.5q67 0 97.5 30.5t30.5 94.5v573h-148v-519q0 -37 -10.5 -49t-33.5 -12v-113zM47 606h148v118h-148v-118z" />
    <glyph glyph-name="k" unicode="k" horiz-adv-x="426" 
d="M47 0h148v252h2l79 -252h158l-100 286l76 224h-146l-67 -187h-2v401h-148v-724z" />
    <glyph glyph-name="l" unicode="l" horiz-adv-x="242" 
d="M47 0h148v724h-148v-724z" />
    <glyph glyph-name="m" unicode="m" horiz-adv-x="686" 
d="M47 0h148v365q0 17 8 26t28 9q21 0 29.5 -9t8.5 -26v-365h148v365q0 17 8 26t28 9q21 0 29.5 -9t8.5 -26v-365h148v401q0 33 -9 55.5t-24 36t-35.5 19.5t-42.5 6q-40 0 -66.5 -15t-42.5 -49q-18 39 -49 52t-63 12q-41 0 -67.5 -15t-42.5 -49h-2v56h-148v-510z" />
    <glyph glyph-name="n" unicode="n" 
d="M47 0h148v365q0 17 8 26t28 9q21 0 29.5 -9t8.5 -26v-365h148v401q0 33 -9 55.5t-24.5 36t-37 19.5t-45.5 6q-36 0 -62 -15t-42 -49h-2v56h-148v-510z" />
    <glyph glyph-name="o" unicode="o" 
d="M37 154q0 -51 12.5 -83t37.5 -49.5t61 -23.5t84 -6t84 6t61 23.5t37.5 49.5t12.5 83v202q0 51 -12.5 83t-37.5 49.5t-61 23.5t-84 6t-84 -6t-61 -23.5t-37.5 -49.5t-12.5 -83v-202zM191 369q0 23 9.5 30t31.5 7t31.5 -7t9.5 -30v-228q0 -23 -9.5 -30t-31.5 -7t-31.5 7
t-9.5 30v228z" />
    <glyph glyph-name="p" unicode="p" 
d="M195 372q0 28 34 28t34 -28v-234q0 -28 -34 -28t-34 28v234zM47 -188h148v233h2q18 -26 43.5 -39.5t65.5 -13.5q24 0 44 5t35 17t23.5 31.5t8.5 49.5v284q0 39 -6 65.5t-20 43t-36.5 23.5t-56.5 7q-20 0 -35 -2t-27.5 -8.5t-23.5 -18.5t-21 -32h-2v53h-142v-698z" />
    <glyph glyph-name="q" unicode="q" 
d="M201 372q0 28 34 28t34 -28v-234q0 -28 -34 -28t-34 28v234zM47 95q0 -30 8.5 -49.5t23.5 -31.5t35 -17t44 -5q40 0 65.5 13.5t43.5 39.5h2v-233h148v698h-141v-53h-2q-11 20 -21.5 32t-23.5 18.5t-28 8.5t-35 2q-34 0 -56.5 -7t-36.5 -23.5t-20 -43t-6 -65.5v-284z" />
    <glyph glyph-name="r" unicode="r" horiz-adv-x="389" 
d="M47 0h148v373q0 16 8.5 21.5t21.5 5.5q12 0 21 -4t9 -16v-76h124v138q-1 47 -24 61.5t-63 14.5q-43 0 -64.5 -12t-36.5 -47h-2v51h-142v-510z" />
    <glyph glyph-name="s" unicode="s" horiz-adv-x="427" 
d="M38 113q0 -37 9.5 -60.5t30.5 -37t55 -18.5t84 -5q45 0 78.5 6t55 25.5t32 55t9.5 95.5q-1 42 -6.5 67.5t-21 41t-43 23.5t-71.5 15q-23 3 -36.5 7t-20 9.5t-8.5 13.5t-2 21q0 26 6.5 36t27.5 10q33 0 33 -36v-24h130v59q0 27 -8.5 47t-28.5 32t-53 17.5t-81 4.5
q-51 -1 -84.5 -7t-53.5 -23.5t-28 -50.5t-8 -89q0 -37 5.5 -62.5t20 -43t39.5 -27t64 -15.5q27 -4 42.5 -7.5t23.5 -8.5t10.5 -14.5t3.5 -25.5q2 -29 -6.5 -37.5t-28.5 -8.5t-27.5 8.5t-7.5 37.5v14h-136v-45z" />
    <glyph glyph-name="t" unicode="t" horiz-adv-x="315" 
d="M23 398h42v-294q0 -59 31 -85.5t99 -26.5q23 0 48 1.5t46 2.5v111q-9 -1 -18.5 -2t-19.5 -1q-24 0 -31 9.5t-7 29.5v255h86v112h-86v133h-148v-133h-42v-112z" />
    <glyph glyph-name="u" unicode="u" 
d="M47 109q0 -33 9 -55.5t24.5 -36t37 -19.5t45.5 -6q36 0 62 15t42 49h2v-56h148v510h-148v-365q0 -17 -8 -26t-28 -9q-21 0 -29.5 9t-8.5 26v365h-148v-401z" />
    <glyph glyph-name="v" unicode="v" horiz-adv-x="408" 
d="M85 0h238l75 510h-148l-45 -422h-2l-45 422h-148z" />
    <glyph glyph-name="w" unicode="w" horiz-adv-x="704" 
d="M90 0h220l41 404h2l41 -404h220l76 510h-139l-46 -416h-2l-46 416h-210l-46 -416h-2l-46 416h-139z" />
    <glyph glyph-name="x" unicode="x" horiz-adv-x="444" 
d="M24 0h149l48 223h2l48 -223h149l-76 276l64 234h-145l-40 -210h-2l-40 210h-145l60 -234z" />
    <glyph glyph-name="y" unicode="y" horiz-adv-x="408" 
d="M81 0h100q-4 -17 -5 -36t-9 -29q-10 -11 -22 -14t-22 -3q-13 0 -22.5 3t-18.5 5v-100q17 -8 36.5 -11t29.5 -3q33 0 60.5 4.5t48.5 18.5t35.5 39t20.5 66l85 570h-148l-45 -422h-2l-45 422h-148z" />
    <glyph glyph-name="z" unicode="z" horiz-adv-x="353" 
d="M25 0h303v106h-145l138 281v123h-287v-106h135l-144 -293v-111z" />
    <glyph glyph-name="braceleft" unicode="{" horiz-adv-x="333" 
d="M-11 306q10 0 22 -3.5t22.5 -11t17 -19t6.5 -28.5v-117q0 -63 32.5 -95t91.5 -32h105v118h-34q-41 0 -41 50v96q0 28 -12 46.5t-28.5 29t-34 15t-29.5 6.5v2q12 2 29.5 6.5t34 15t28.5 28.5t12 47v96q0 50 41 50h34v118h-105q-59 0 -91.5 -32t-32.5 -95v-117
q0 -17 -6.5 -28.5t-17 -19t-22.5 -11t-22 -3.5v-112z" />
    <glyph glyph-name="bar" unicode="|" horiz-adv-x="222" 
d="M55 750v-1000h112v1000h-112z" />
    <glyph glyph-name="braceright" unicode="}" horiz-adv-x="333" 
d="M344 418q-11 0 -22.5 3.5t-22 11t-17 19t-6.5 28.5v117q0 63 -32.5 95t-91.5 32h-105v-118h34q41 0 41 -50v-96q0 -29 12 -47t28.5 -28.5t34 -15t29.5 -6.5v-2q-12 -2 -29.5 -6.5t-34 -15t-28.5 -29t-12 -46.5v-96q0 -50 -41 -50h-34v-118h105q59 0 91.5 32t32.5 95v117
q0 17 6.5 28.5t17 19t22 11t22.5 3.5v112z" />
    <glyph glyph-name="asciitilde" unicode="~" horiz-adv-x="600" 
d="M105 160q12 26 31.5 48t52.5 22q35 0 63 -10t52 -24q25 -14 49.5 -23t52.5 -9q23 0 41.5 7.5t33 19.5t27 27t23.5 31l-36 97q-17 -26 -37.5 -48.5t-50.5 -22.5q-20 0 -47 11.5t-55 23.5q-29 13 -57 22.5t-54 9.5q-25 0 -44.5 -7.5t-34.5 -19.5t-26.5 -27.5t-19.5 -31.5z
" />
    <glyph glyph-name="Euro" horiz-adv-x="500" 
d="M368 345h-117v61h139l30 87h-169v33q0 12 2.5 27.5t10 29t22 22.5t38.5 9h21q24 0 41 -6t28 -15t18 -20.5t12 -22.5l44 124q-5 6 -17 15.5t-32 19t-47 16.5t-62 7h-35q-56 0 -96 -17.5t-65.5 -45.5t-37 -63t-11.5 -70v-43h-44l-31 -87h75v-61h-49l-31 -87h80v-43
q0 -37 9 -76.5t32 -72t62.5 -53.5t101.5 -21h37q64 0 93.5 11.5t37.5 18.5v131q-26 -26 -57 -34.5t-53 -8.5h-21q-26 0 -41 10.5t-23 27t-10 36.5t-2 40v34h86z" />
    <glyph glyph-name="Euro" unicode="&#x20ac;" horiz-adv-x="500" 
d="M368 345h-117v61h139l30 87h-169v33q0 12 2.5 27.5t10 29t22 22.5t38.5 9h21q24 0 41 -6t28 -15t18 -20.5t12 -22.5l44 124q-5 6 -17 15.5t-32 19t-47 16.5t-62 7h-35q-56 0 -96 -17.5t-65.5 -45.5t-37 -63t-11.5 -70v-43h-44l-31 -87h75v-61h-49l-31 -87h80v-43
q0 -37 9 -76.5t32 -72t62.5 -53.5t101.5 -21h37q64 0 93.5 11.5t37.5 18.5v131q-26 -26 -57 -34.5t-53 -8.5h-21q-26 0 -41 10.5t-23 27t-10 36.5t-2 40v34h86z" />
    <glyph glyph-name="quotesinglbase" unicode="&#x201a;" horiz-adv-x="222" 
d="M42 -158q28 0 53.5 7t45.5 23.5t32 43.5t12 66v172h-148v-154h63q0 -5 0.5 -9.5t0.5 -9.5q0 -31 -14 -44.5t-45 -18.5v-76z" />
    <glyph glyph-name="florin" unicode="&#x192;" horiz-adv-x="500" 
d="M-15 -177q10 -5 35 -8t55 -3q42 0 73.5 12t54.5 40t38.5 74.5t26.5 114.5l48 310h103v112h-89q11 78 32.5 108.5t62.5 30.5q13 0 24.5 -2.5t22.5 -4.5v118q-14 2 -33 4.5t-35 2.5q-60 0 -100.5 -15.5t-67 -47t-42.5 -80t-26 -114.5h-94v-112h81l-51 -328q-9 -57 -23 -81
t-43 -24q-14 0 -27 4t-26 11v-122z" />
    <glyph glyph-name="quotedblbase" unicode="&#x201e;" horiz-adv-x="407" 
d="M226 0h63q1 -5 1 -9v-10q0 -31 -14 -44.5t-45 -18.5v-76q28 0 53.5 7t45.5 23.5t32 43.5t12 66v172h-148v-154zM33 0h63q1 -5 1 -9v-10q0 -31 -14 -44.5t-45 -18.5v-76q28 0 53.5 7t45.5 23.5t32 43.5t12 66v172h-148v-154z" />
    <glyph glyph-name="ellipsis" unicode="&#x2026;" horiz-adv-x="1000" 
d="M93 0h148v154h-148v-154zM426 0h148v154h-148v-154zM759 0h148v154h-148v-154z" />
    <glyph glyph-name="dagger" unicode="&#x2020;" horiz-adv-x="408" 
d="M33 410h97v-410h148v410h97v136h-97v178h-148v-178h-97v-136z" />
    <glyph glyph-name="daggerdbl" unicode="&#x2021;" horiz-adv-x="408" 
d="M45 157h85v-157h148v157h85v136h-85v143h85v136h-85v152h-148v-152h-85v-136h85v-143h-85v-136z" />
    <glyph glyph-name="circumflex" unicode="&#x2c6;" horiz-adv-x="242" 
d="M-56 576h113l64 82l64 -82h113l-115 148h-124z" />
    <glyph glyph-name="perthousand" unicode="&#x2030;" horiz-adv-x="1000" 
d="M828 314q0 11 5 15t22 4t22 -4t5 -15v-203q0 -11 -5 -15t-22 -4t-22 4t-5 15v203zM728 119q0 -38 7.5 -62.5t23.5 -39t39.5 -20t56.5 -5.5q69 0 98 31t29 96v197q0 38 -7 62t-22.5 37.5t-39.5 18.5t-58 5q-29 0 -52 -5t-40 -18.5t-26 -37.5t-9 -62v-197zM433 119
q0 -38 7.5 -62.5t23.5 -39t39.5 -20t56.5 -5.5q69 0 98 31t29 96v197q0 38 -7 62t-22.5 37.5t-39.5 18.5t-58 5q-29 0 -52 -5t-40 -18.5t-26 -37.5t-9 -62v-197zM533 314q0 11 5 15t22 4t22 -4t5 -15v-203q0 -11 -5 -15t-22 -4t-22 4t-5 15v203zM18 412q0 -38 7.5 -62.5
t23.5 -39t39.5 -20t56.5 -5.5q69 0 98 31t29 96v197q0 38 -7 62t-22.5 37.5t-39.5 18.5t-58 5q-29 0 -52 -5t-40 -18.5t-26 -37.5t-9 -62v-197zM118 607q0 11 5 15t22 4t22 -4t5 -15v-203q0 -11 -5 -15t-22 -4t-22 4t-5 15v203zM103 -6h104l395 737h-104z" />
    <glyph glyph-name="Scaron" unicode="&#x160;" horiz-adv-x="500" 
d="M195 238h-154v-60q0 -54 8 -90t31 -57t64.5 -30t109.5 -9q53 0 91.5 7.5t64 29.5t37.5 62.5t12 105.5q0 70 -6 110.5t-26 64.5t-59.5 38.5t-105.5 31.5q-18 4 -30 8.5t-19 11.5t-9.5 18t-2.5 28v48q0 26 7 39t40 13q16 0 25 -2t14 -8.5t6.5 -20.5t1.5 -38v-35h148v87
q0 38 -10 64.5t-32.5 43.5t-59 25t-90.5 8q-59 0 -99.5 -5.5t-65 -24.5t-35 -56t-10.5 -100v-44q0 -48 6 -79.5t22.5 -52.5t47 -34t78.5 -25q33 -8 52 -13.5t29.5 -12.5t13.5 -18t3 -30v-78q0 -23 -10.5 -33t-38.5 -10q-18 0 -28 4t-14.5 12.5t-5.5 21.5t-1 32v52zM188 760
h124l115 148h-113l-64 -82l-64 82h-113z" />
    <glyph glyph-name="guilsinglleft" unicode="&#x2039;" horiz-adv-x="333" 
d="M134 88h153l-88 177l88 177h-153l-88 -177z" />
    <glyph glyph-name="OE" unicode="&#x152;" horiz-adv-x="685" 
d="M312 150q0 -20 -10.5 -27t-38.5 -7q-22 0 -31.5 7t-9.5 27v424q0 20 9.5 27t31.5 7q28 0 38.5 -7t10.5 -27v-424zM344 0h301v130h-167v181h144v124h-144v159h156v130h-284v-35l-2 2q-14 26 -43.5 33.5t-86.5 7.5q-48 0 -80.5 -11t-52 -34.5t-27.5 -60t-8 -88.5v-399
q0 -48 11.5 -77t34 -44.5t54.5 -20.5t74 -5q43 0 73.5 7.5t44.5 31.5h2v-31z" />
    <glyph glyph-name="Zcaron" horiz-adv-x="426" 
d="M44 594h167l-186 -470v-124h364v130h-185l185 468v126h-345v-130zM151 760h124l115 148h-113l-64 -82l-64 82h-113z" />
    <glyph glyph-name="Zcaron" unicode="&#x17d;" horiz-adv-x="426" 
d="M44 594h167l-186 -470v-124h364v130h-185l185 468v126h-345v-130zM151 760h124l115 148h-113l-64 -82l-64 82h-113z" />
    <glyph glyph-name="quoteleft" unicode="&#x2018;" horiz-adv-x="222" 
d="M37 412h148v154h-63q0 5 -0.5 9.5t-0.5 9.5q0 31 14 44.5t45 18.5v76q-28 0 -53.5 -7.5t-45.5 -24t-32 -43t-12 -65.5v-172z" />
    <glyph glyph-name="quoteright" unicode="&#x2019;" horiz-adv-x="222" 
d="M37 570h63q0 -5 0.5 -9.5t0.5 -9.5q0 -31 -14 -44.5t-45 -18.5v-76q28 0 53.5 7t45.5 23.5t32 43.5t12 66v172h-148v-154z" />
    <glyph glyph-name="quotedblleft" unicode="&#x201c;" horiz-adv-x="407" 
d="M226 412h148v154h-63q-1 5 -1 9v10q0 31 14 44.5t45 18.5v76q-28 0 -53.5 -7.5t-45.5 -24t-32 -43t-12 -65.5v-172zM33 412h148v154h-63q-1 5 -1 9v10q0 31 14 44.5t45 18.5v76q-28 0 -53.5 -7.5t-45.5 -24t-32 -43t-12 -65.5v-172z" />
    <glyph glyph-name="quotedblright" unicode="&#x201d;" horiz-adv-x="407" 
d="M38 412q28 0 53.5 7t45.5 23.5t32 43.5t12 66v172h-148v-154h63q1 -5 1 -10v-9q0 -31 -14 -44.5t-45 -18.5v-76zM231 412q28 0 53.5 7t45.5 23.5t32 43.5t12 66v172h-148v-154h63q1 -5 1 -10v-9q0 -31 -14 -44.5t-45 -18.5v-76z" />
    <glyph glyph-name="bullet" unicode="&#x2022;" horiz-adv-x="500" 
d="M69 362q0 -38 14 -70.5t39 -57.5t57.5 -39t70.5 -14q37 0 70 14t58 39t39 57.5t14 70.5q0 37 -14 70t-39 58t-58 39t-70 14q-38 0 -70.5 -14t-57.5 -39t-39 -58t-14 -70z" />
    <glyph glyph-name="endash" unicode="&#x2013;" horiz-adv-x="500" 
d="M0 209h500v112h-500v-112z" />
    <glyph glyph-name="emdash" unicode="&#x2014;" horiz-adv-x="1000" 
d="M0 209h1000v112h-1000v-112z" />
    <glyph glyph-name="tilde" unicode="&#x2dc;" horiz-adv-x="242" 
d="M2 594q2 19 14 30t30 11q17 0 33.5 -5.5t34.5 -12t38 -12t44 -5.5q44 0 72 33.5t36 90.5h-65q-3 -20 -16.5 -31.5t-30.5 -11.5q-11 0 -26 6t-33 13t-38 13t-40 6q-52 0 -79 -34t-38 -91h64z" />
    <glyph glyph-name="trademark" unicode="&#x2122;" horiz-adv-x="1000" 
d="M830 312h106v412h-153l-94 -252l-94 252h-153v-412h106v282h2l98 -282h82l98 282l2 -1v1v-282zM158 312h112v324h114v88h-340v-88h114v-324z" />
    <glyph glyph-name="scaron" unicode="&#x161;" horiz-adv-x="427" 
d="M38 113q0 -37 9.5 -60.5t30.5 -37t55 -18.5t84 -5q45 0 78.5 6t55 25.5t32 55t9.5 95.5q-1 42 -6.5 67.5t-21 41t-43 23.5t-71.5 15q-23 3 -36.5 7t-20 9.5t-8.5 13.5t-2 21q0 26 6.5 36t27.5 10q33 0 33 -36v-24h130v59q0 27 -8.5 47t-28.5 32t-53 17.5t-81 4.5
q-51 -1 -84.5 -7t-53.5 -23.5t-28 -50.5t-8 -89q0 -37 5.5 -62.5t20 -43t39.5 -27t64 -15.5q27 -4 42.5 -7.5t23.5 -8.5t10.5 -14.5t3.5 -25.5q2 -29 -6.5 -37.5t-28.5 -8.5t-27.5 8.5t-7.5 37.5v14h-136v-45zM152 576h124l115 148h-113l-64 -82l-64 82h-113z" />
    <glyph glyph-name="guilsinglright" unicode="&#x203a;" horiz-adv-x="333" 
d="M46 88h153l88 177l-88 177h-153l88 -177z" />
    <glyph glyph-name="oe" unicode="&#x153;" horiz-adv-x="685" 
d="M37 154q0 -51 12.5 -83t37.5 -49.5t61.5 -23.5t84.5 -6q15 0 31 1.5t31 6t27 12.5t19 22q21 -28 52.5 -35t73.5 -7q51 0 85.5 6.5t56 22t30.5 42t9 66.5v29h-150v-24q0 -23 -10 -29.5t-30 -6.5q-28 0 -35.5 7.5t-7.5 27.5v86h233v158q0 30 -7.5 56t-29 44.5t-59.5 29.5
t-99 11q-39 0 -65.5 -8.5t-43.5 -31.5q-12 14 -26 22t-28.5 12t-29 5t-28.5 1q-48 0 -84 -6t-61 -23.5t-37.5 -49.5t-12.5 -83v-202zM191 369q0 23 9 30t28 7t29 -7t10 -30v-228q0 -23 -10 -30t-29 -7t-28 7t-9 30v228zM415 313v69q0 16 7.5 23t31.5 7q25 0 32.5 -7t7.5 -23
v-69h-79z" />
    <glyph glyph-name="zcaron" horiz-adv-x="353" 
d="M25 0h303v106h-145l138 281v123h-287v-106h135l-144 -293v-111zM115 576h124l115 148h-113l-64 -82l-64 82h-113z" />
    <glyph glyph-name="zcaron" unicode="&#x17e;" horiz-adv-x="353" 
d="M25 0h303v106h-145l138 281v123h-287v-106h135l-144 -293v-111zM115 576h124l115 148h-113l-64 -82l-64 82h-113z" />
    <glyph glyph-name="Ydieresis" unicode="&#x178;" 
d="M152 0h160v234l152 490h-164l-67 -326h-2l-67 326h-164l152 -490v-234zM68 765h130v118h-130v-118zM266 765h130v118h-130v-118z" />
    <glyph glyph-name="nonbreakingspace" unicode="&#xa0;" horiz-adv-x="250" 
 />
    <glyph glyph-name="exclamdown" unicode="&#xa1;" horiz-adv-x="278" 
d="M65 -180h148v502h-148v-502zM65 390h148v154h-148v-154z" />
    <glyph glyph-name="cent" unicode="&#xa2;" horiz-adv-x="500" 
d="M212 372q0 23 9.5 31.5t32.5 8.5q16 0 24.5 -1t15.5 -3l-80 -192h-2v156zM64 166q0 -60 14.5 -95t43.5 -52l-61 -145h66l52 124q17 -4 36.5 -5t41.5 -1q60 0 94.5 10t52 28t22.5 43t5 56v70h-130v-61q0 -23 -9.5 -31.5t-40.5 -8.5q-13 0 -20 2t-10 4l98 230h106v86
q0 23 -8.5 39t-24.5 28l58 136h-65l-51 -113q-20 5 -43 6.5t-47 1.5q-42 0 -75.5 -6t-56.5 -24.5t-35.5 -52.5t-12.5 -89v-180z" />
    <glyph glyph-name="sterling" unicode="&#xa3;" horiz-adv-x="500" 
d="M35 263h69q2 -15 2 -29v-28q0 -23 -2.5 -38t-10 -24.5t-21.5 -14t-37 -5.5v-124h437v130h-217q8 41 9.5 74t1.5 59h118v118h-121q-5 60 -11.5 113t-5.5 84q0 20 10.5 28t30.5 8q18 0 26.5 -7t8.5 -32v-57h148v61q0 47 -13.5 76.5t-39 46.5t-63.5 23.5t-86 6.5
q-61 0 -96 -14t-53 -36.5t-22.5 -51.5t-4.5 -58q0 -45 3.5 -92.5t5.5 -98.5h-66v-118z" />
    <glyph glyph-name="currency" unicode="&#xa4;" horiz-adv-x="500" 
d="M114 362q0 30 10.5 56t28.5 45t43 30t54 11t54 -11t43 -30t28.5 -45t10.5 -56t-10.5 -56t-28.5 -45t-43 -30t-54 -11t-54 11t-43 30t-28.5 45t-10.5 56zM-12 164l64 -64l58 58q30 -21 65.5 -32.5t74.5 -11.5t75 11.5t65 32.5l58 -58l64 64l-58 58q21 30 32.5 65.5
t11.5 74.5q0 38 -11.5 73.5t-32.5 66.5l58 58l-64 64l-57 -57q-29 20 -65 31.5t-76 11.5q-38 0 -73.5 -11.5t-66.5 -31.5l-58 57l-64 -64l57 -57q-20 -29 -31.5 -65t-11.5 -76q0 -39 11.5 -75t32.5 -65z" />
    <glyph glyph-name="yen" unicode="&#xa5;" horiz-adv-x="500" 
d="M173 0h154v113h140v94h-140v27l16 53h124v94h-94l106 343h-161l-67 -326h-2l-67 326h-161l106 -343h-94v-94h124l16 -53v-27h-140v-94h140v-113z" />
    <glyph glyph-name="brokenbar" unicode="&#xa6;" horiz-adv-x="222" 
d="M55 675v-350h112v350h-112zM55 175v-350h112v350h-112z" />
    <glyph glyph-name="section" unicode="&#xa7;" horiz-adv-x="538" 
d="M65 107q0 -29 10 -50.5t33 -35.5t60.5 -21.5t93.5 -7.5q59 0 98 8t62 25t32 43t9 61q0 70 -44 114q35 14 52 45.5t17 69.5q0 39 -10 66t-29 45.5t-46 30.5t-60 22q-36 10 -57.5 17.5t-32.5 14.5t-14.5 14t-3.5 18q0 23 10.5 31.5t34.5 8.5q22 0 31 -7t9 -33v-6h142
q0 44 -8.5 73t-30.5 46.5t-60 25t-97 7.5q-54 0 -89.5 -11.5t-57 -31t-30 -46t-8.5 -56.5q0 -26 9 -58t35 -54q-37 -21 -56 -48.5t-19 -74.5q0 -32 11 -55t30 -40t45 -29.5t55 -22.5q37 -13 60 -21.5t36 -16.5t17.5 -16t4.5 -20q0 -23 -12 -28t-41 -5q-32 0 -40.5 8.5
t-8.5 31.5v11h-142v-42zM174 394q0 22 19 34q15 -10 43.5 -18.5t57 -19t49.5 -25t21 -36.5q0 -11 -5 -20.5t-13 -12.5q-18 15 -47.5 25.5t-57 20.5t-47.5 22t-20 30z" />
    <glyph glyph-name="dieresis" unicode="&#xa8;" horiz-adv-x="242" 
d="M-43 606h130v118h-130v-118zM155 606h130v118h-130v-118z" />
    <glyph glyph-name="copyright" unicode="&#xa9;" horiz-adv-x="800" 
d="M482 305q-5 -35 -25.5 -51.5t-51.5 -16.5q-42 0 -68 32.5t-26 97.5q0 59 24 92.5t67 33.5q32 0 53.5 -14.5t26.5 -49.5h84q-2 37 -14.5 65.5t-34.5 48t-51 29t-63 9.5q-44 0 -78.5 -16.5t-58.5 -45t-36.5 -68.5t-12.5 -86q0 -49 14.5 -89t38.5 -68t56.5 -43.5t68.5 -15.5
q39 0 70.5 12.5t53.5 33.5t34 49.5t13 60.5h-84zM30 362q0 -77 29 -144t79.5 -117.5t117.5 -79.5t144 -29q76 0 143.5 29t118 79.5t79.5 117.5t29 144q0 76 -29 143.5t-79.5 118t-118 79.5t-143.5 29q-77 0 -144 -29t-117.5 -79.5t-79.5 -118t-29 -143.5zM142 362
q0 58 18.5 107.5t52 85.5t81 56.5t106.5 20.5q58 0 106 -20.5t81.5 -56.5t52 -85.5t18.5 -107.5q0 -59 -18.5 -108.5t-52 -85.5t-81.5 -56t-106 -20q-59 0 -106.5 20t-81 56t-52 85.5t-18.5 108.5z" />
    <glyph glyph-name="ordfeminine" unicode="&#xaa;" horiz-adv-x="289" 
d="M29 638h94v12q0 16 23 16q25 0 25 -15v-51q-14 10 -31.5 14.5t-44.5 4.5q-20 0 -35 -4t-26 -15t-16.5 -30.5t-5.5 -49.5q0 -28 3 -48.5t12 -34t24.5 -20.5t40.5 -7q18 0 30 1t21 4.5t15.5 9.5t14.5 15l2 2v-26h102v229q0 28 -7.5 45t-23 26.5t-40.5 12.5t-61 3
q-63 0 -89.5 -10t-26.5 -44v-40zM124 527q0 16 6 21t17 5q14 0 19 -5.5t5 -16.5v-22q0 -9 -4 -16t-20 -7q-13 0 -17.5 5.5t-5.5 20.5v15z" />
    <glyph glyph-name="guillemotleft" unicode="&#xab;" horiz-adv-x="537" 
d="M338 88h153l-88 177l87 177h-152l-88 -176zM134 88h153l-88 177l88 177h-153l-88 -177z" />
    <glyph glyph-name="logicalnot" unicode="&#xac;" horiz-adv-x="600" 
d="M47 309h394v-199h112v311h-506v-112z" />
    <glyph glyph-name="registered" unicode="&#xae;" horiz-adv-x="800" 
d="M30 362q0 -77 29 -144t79.5 -117.5t117.5 -79.5t144 -29q76 0 143.5 29t118 79.5t79.5 117.5t29 144q0 76 -29 143.5t-79.5 118t-118 79.5t-143.5 29q-77 0 -144 -29t-117.5 -79.5t-79.5 -118t-29 -143.5zM142 362v-1v1q0 58 18.5 107.5t52 85.5t81 56.5t106.5 20.5
q58 0 106 -20.5t81.5 -56.5t52 -85.5t18.5 -107.5q0 -59 -18.5 -108.5t-52 -85.5t-81.5 -56t-106 -20q-59 0 -106.5 20t-81 56t-52 85.5t-18.5 108.5zM253 160h88v169h33l88 -169h94l-95 174q45 4 74 28t29 80q0 70 -43 96t-119 26h-149v-404zM341 498h57q12 0 25.5 -1
t25.5 -6t19.5 -14.5t7.5 -26.5q0 -35 -17.5 -45t-45.5 -10h-72v103z" />
    <glyph glyph-name="macron" unicode="&#xaf;" horiz-adv-x="242" 
d="M-45 648h332v76h-332v-76z" />
    <glyph glyph-name="macron" unicode="&#x2c9;" horiz-adv-x="242" 
d="M-45 648h332v76h-332v-76z" />
    <glyph glyph-name="degree" unicode="&#xb0;" horiz-adv-x="400" 
d="M57 589q0 -30 11 -56t30.5 -45.5t45.5 -30.5t56 -11t56 11t45.5 30.5t30.5 45.5t11 56t-11 56t-30.5 45.5t-45.5 30.5t-56 11t-56 -11t-45.5 -30.5t-30.5 -45.5t-11 -56zM123 589q0 32 22.5 54.5t54.5 22.5t54.5 -22.5t22.5 -54.5t-22.5 -54.5t-54.5 -22.5t-54.5 22.5
t-22.5 54.5z" />
    <glyph glyph-name="plusminus" unicode="&#xb1;" horiz-adv-x="600" 
d="M47 269h197v-125h112v125h197v112h-197v125h-112v-125h-197v-112zM47 0h506v112h-506v-112z" />
    <glyph glyph-name="twosuperior" unicode="&#xb2;" horiz-adv-x="325" 
d="M21 293h281v82h-169v6q0 28 15 41.5t55 28.5q34 13 54 23t30.5 24t13.5 36t3 59q0 40 -2.5 67t-15.5 43t-40.5 22.5t-78.5 6.5q-36 0 -62.5 -3.5t-44 -13.5t-26 -29t-8.5 -49v-71h112v65q0 19 22 19q11 0 15.5 -6.5t4.5 -35.5v-35q0 -15 -3 -24t-9.5 -15.5t-17 -11.5
t-25.5 -11q-31 -13 -51 -26t-32 -28t-16.5 -33t-4.5 -41v-90z" />
    <glyph glyph-name="threesuperior" unicode="&#xb3;" horiz-adv-x="325" 
d="M97 474h46q15 0 23.5 -1t13 -6t5.5 -15t1 -28q0 -35 -5 -46t-26 -11q-20 0 -24.5 7.5t-4.5 21.5v35h-112v-58q0 -22 4.5 -38.5t18.5 -27.5t41 -16.5t71 -5.5q50 0 80.5 6.5t47 20.5t22 37.5t5.5 56.5q0 28 -2 48t-9 33t-20.5 20.5t-36.5 10.5v4q20 3 32 9t19 18t9 32
t2 52q0 27 -5 45.5t-21 30.5t-44.5 17.5t-75.5 5.5q-73 0 -104.5 -19.5t-31.5 -64.5v-46h112v27q0 14 6 17.5t20 3.5q16 0 21 -5t5 -28q0 -21 -1.5 -33t-7 -18t-16 -8t-29.5 -2h-29v-82z" />
    <glyph glyph-name="acute" unicode="&#xb4;" horiz-adv-x="242" 
d="M39 576h99l148 148h-155z" />
    <glyph glyph-name="mu" unicode="&#xb5;" 
d="M47 -188h148v206h2q4 -18 24 -18q5 0 11.5 1.5t12.5 7.5t11.5 17t10.5 30h2v-56h148v510h-148v-365q0 -17 -8 -26t-28 -9q-21 0 -29.5 9t-8.5 26v365h-148v-698z" />
    <glyph glyph-name="mu" unicode="&#x3bc;" 
d="M47 -188h148v206h2q4 -18 24 -18q5 0 11.5 1.5t12.5 7.5t11.5 17t10.5 30h2v-56h148v510h-148v-365q0 -17 -8 -26t-28 -9q-21 0 -29.5 9t-8.5 26v365h-148v-698z" />
    <glyph glyph-name="paragraph" unicode="&#xb6;" horiz-adv-x="620" 
d="M218 0h112v636h88v-636h112v724h-299q-42 0 -78.5 -7t-63 -24.5t-41.5 -47.5t-15 -77q0 -73 47 -112t138 -40v-416z" />
    <glyph glyph-name="periodcentered" unicode="&#xb7;" horiz-adv-x="250" 
d="M36 287q0 -37 26 -63t63 -26t63 26t26 63t-26 63t-63 26t-63 -26t-26 -63z" />
    <glyph glyph-name="periodcentered" unicode="&#x2219;" horiz-adv-x="250" 
d="M36 287q0 -37 26 -63t63 -26t63 26t26 63t-26 63t-63 26t-63 -26t-26 -63z" />
    <glyph glyph-name="cedilla" unicode="&#xb8;" horiz-adv-x="242" 
d="M-2 -203q22 -8 46.5 -16.5t60.5 -8.5q25 0 48.5 6t40.5 18t27.5 29.5t10.5 40.5q0 39 -27.5 58t-62.5 19q-19 0 -31 -6l-2 2l43 61h-54l-59 -90l21 -24q20 8 43 8q18 0 29.5 -10.5t11.5 -24.5q0 -21 -13.5 -30t-31.5 -9q-23 0 -41.5 4t-42.5 12z" />
    <glyph glyph-name="onesuperior" unicode="&#xb9;" horiz-adv-x="325" 
d="M4 604l64 -52l60 90h2v-349h124v431h-150z" />
    <glyph glyph-name="ordmasculine" unicode="&#xba;" horiz-adv-x="302" 
d="M16 507q0 -31 8.5 -50t25 -29.5t42 -14t59.5 -3.5t59 3.5t42 14t25.5 29.5t8.5 50v128q0 31 -8.5 50t-25.5 29.5t-42 14t-59 3.5t-59.5 -3.5t-42 -14t-25 -29.5t-8.5 -50v-128zM128 633q0 14 5.5 18.5t17.5 4.5t17.5 -4.5t5.5 -18.5v-124q0 -14 -5.5 -18.5t-17.5 -4.5
t-17.5 4.5t-5.5 18.5v124z" />
    <glyph glyph-name="guillemotright" unicode="&#xbb;" horiz-adv-x="537" 
d="M46 88h153l88 178l-88 176h-152l87 -177zM250 88h153l88 177l-88 177h-153l88 -177z" />
    <glyph glyph-name="onequarter" unicode="&#xbc;" horiz-adv-x="750" 
d="M431 82h169v-82h112v82h29v82h-29v267h-179l-102 -241v-108zM600 164h-78l76 207h2v-207zM126 -8h104l395 740h-104zM4 604l64 -52l60 90h2v-349h124v431h-150z" />
    <glyph glyph-name="onehalf" unicode="&#xbd;" horiz-adv-x="750" 
d="M126 -8h104l395 740h-104zM4 604l64 -52l60 90h2v-349h124v431h-150zM458 0h281v82h-169v6q0 28 15 41.5t55 28.5q34 13 54 23t30.5 24t13.5 36t3 59q0 40 -2.5 67t-15.5 43t-40.5 22.5t-78.5 6.5q-36 0 -62.5 -3.5t-44 -13.5t-26 -29t-8.5 -49v-70h112v64q0 19 22 19
q11 0 15.5 -6.5t4.5 -35.5v-35q0 -15 -3 -24t-9.5 -15.5t-17 -11.5t-25.5 -11q-31 -13 -51 -26t-32 -28t-16.5 -33t-4.5 -41v-90z" />
    <glyph glyph-name="threequarters" unicode="&#xbe;" horiz-adv-x="750" 
d="M87 474h46q15 0 23.5 -1t13 -6t5.5 -15t1 -28q0 -35 -5 -46t-26 -11q-20 0 -24.5 7.5t-4.5 21.5v35h-112v-58q0 -22 4.5 -38.5t18.5 -27.5t41 -16.5t71 -5.5q50 0 80.5 6.5t47 20.5t22 37.5t5.5 56.5q0 28 -2 48t-9 33t-20.5 20.5t-36.5 10.5v4q20 3 32 9t19 18t9 32
t2 52q0 27 -5 45.5t-21 30.5t-44.5 17.5t-75.5 5.5q-73 0 -104.5 -19.5t-31.5 -64.5v-46h112v27q0 14 6 17.5t20 3.5q16 0 21 -5t5 -28q0 -21 -1.5 -33t-7 -18t-16 -8t-29.5 -2h-29v-82zM431 82h169v-82h112v82h29v82h-29v267h-179l-102 -241v-108zM126 -8h104l395 740h-104
zM600 164h-78l76 207h2v-207z" />
    <glyph glyph-name="questiondown" unicode="&#xbf;" horiz-adv-x="426" 
d="M156 271q0 -12 -1.5 -20t-7.5 -15.5t-18 -16t-34 -21.5t-36.5 -25t-23.5 -30.5t-12.5 -47.5t-3.5 -76q0 -67 8 -108t31.5 -63t66.5 -29t113 -7q49 0 83.5 6.5t56.5 25t31.5 51t9.5 84.5v61h-154v-75q0 -18 -9 -26.5t-34 -8.5q-14 0 -22.5 2t-13 9.5t-6 22t-1.5 38.5
q0 30 1.5 48t6.5 30t16 21t29 21q24 15 39 27t24 25t12 29t3 40v80h-154v-52zM156 390h154v154h-154v-154z" />
    <glyph glyph-name="Agrave" unicode="&#xc0;" horiz-adv-x="520" 
d="M300 298h-80l39 326h2zM16 0h169l21 174h108l21 -174h169l-109 724h-270zM243 760h99l-92 148h-155z" />
    <glyph glyph-name="Aacute" unicode="&#xc1;" horiz-adv-x="520" 
d="M300 298h-80l39 326h2zM16 0h169l21 174h108l21 -174h169l-109 724h-270zM178 760h99l148 148h-155z" />
    <glyph glyph-name="Acircumflex" unicode="&#xc2;" horiz-adv-x="520" 
d="M300 298h-80l39 326h2zM16 0h169l21 174h108l21 -174h169l-109 724h-270zM83 760h113l64 82l64 -82h113l-115 148h-124z" />
    <glyph glyph-name="Atilde" unicode="&#xc3;" horiz-adv-x="520" 
d="M300 298h-80l39 326h2zM16 0h169l21 174h108l21 -174h169l-109 724h-270zM141 778q2 19 14 30t30 11q17 0 33.5 -5.5t34.5 -12t38 -12t44 -5.5q44 0 72 33.5t36 90.5h-65q-3 -20 -16.5 -31.5t-30.5 -11.5q-11 0 -26 6t-33 13t-38 13t-40 6q-52 0 -79 -34t-38 -91h64z" />
    <glyph glyph-name="Adieresis" unicode="&#xc4;" horiz-adv-x="520" 
d="M300 298h-80l39 326h2zM16 0h169l21 174h108l21 -174h169l-109 724h-270zM96 765h130v118h-130v-118zM294 765h130v118h-130v-118z" />
    <glyph glyph-name="Aring" unicode="&#xc5;" horiz-adv-x="520" 
d="M300 298h-80l39 326h2zM16 0h169l21 174h108l21 -174h169l-109 724h-270zM153 857q0 -48 29.5 -77.5t77.5 -29.5t77.5 29.5t29.5 77.5q0 52 -31 79.5t-76 27.5t-76 -27.5t-31 -79.5zM213 857q0 20 13.5 33.5t33.5 13.5t33.5 -13.5t13.5 -33.5t-13.5 -33.5t-33.5 -13.5
t-33.5 13.5t-13.5 33.5z" />
    <glyph glyph-name="AE" unicode="&#xc6;" horiz-adv-x="741" 
d="M367 311h-114l89 295h25v-295zM-9 0h168l57 187h151v-187h334v130h-168v181h142v124h-142v159h156v130h-470z" />
    <glyph glyph-name="Ccedilla" unicode="&#xc7;" horiz-adv-x="500" 
d="M45 147q0 -71 37.5 -113t129.5 -42h16l-54 -82l21 -24q20 8 43 8q18 0 29.5 -10.5t11.5 -24.5q0 -21 -13.5 -30t-31.5 -9q-23 0 -41.5 4t-42.5 12l-17 -39q22 -8 46.5 -16.5t60.5 -8.5q25 0 48.5 6t40.5 18t27.5 29.5t10.5 40.5q0 39 -27.5 58t-62.5 19q-19 0 -31 -6
l-2 2l38 53q50 1 84.5 9.5t56 28t31 51.5t9.5 79v107h-160v-114q0 -31 -43 -31t-43 31v418q0 31 44 31q42 0 42 -31v-95h160v132q0 31 -9 54.5t-31 39t-58.5 23t-90.5 7.5h-62q-92 0 -129.5 -44.5t-37.5 -131.5v-409z" />
    <glyph glyph-name="Egrave" unicode="&#xc8;" horiz-adv-x="426" 
d="M55 0h331v130h-165v181h142v124h-142v159h153v130h-319v-724zM196 760h99l-92 148h-155z" />
    <glyph glyph-name="Eacute" unicode="&#xc9;" horiz-adv-x="426" 
d="M55 0h331v130h-165v181h142v124h-142v159h153v130h-319v-724zM131 760h99l148 148h-155z" />
    <glyph glyph-name="Ecircumflex" unicode="&#xca;" horiz-adv-x="426" 
d="M55 0h331v130h-165v181h142v124h-142v159h153v130h-319v-724zM36 760h113l64 82l64 -82h113l-115 148h-124z" />
    <glyph glyph-name="Edieresis" unicode="&#xcb;" horiz-adv-x="426" 
d="M55 0h331v130h-165v181h142v124h-142v159h153v130h-319v-724zM49 765h130v118h-130v-118zM247 765h130v118h-130v-118z" />
    <glyph glyph-name="Igrave" unicode="&#xcc;" horiz-adv-x="296" 
d="M65 0h166v724h-166v-724zM131 760h99l-92 148h-155z" />
    <glyph glyph-name="Iacute" unicode="&#xcd;" horiz-adv-x="296" 
d="M65 0h166v724h-166v-724zM66 760h99l148 148h-155z" />
    <glyph glyph-name="Icircumflex" unicode="&#xce;" horiz-adv-x="296" 
d="M65 0h166v724h-166v-724zM-29 760h113l64 82l64 -82h113l-115 148h-124z" />
    <glyph glyph-name="Idieresis" unicode="&#xcf;" horiz-adv-x="296" 
d="M65 0h166v724h-166v-724zM-16 765h130v118h-130v-118zM182 765h130v118h-130v-118z" />
    <glyph glyph-name="Eth" unicode="&#xd0;" horiz-adv-x="520" 
d="M8 311h47v-311h216q58 0 97 9t63 37.5t34 82t10 142.5v181q0 89 -10 143t-34 82.5t-63 37.5t-97 9h-216v-283h-47v-130zM221 600h44q27 0 35.5 -14.5t8.5 -55.5v-330q0 -41 -8.5 -55.5t-35.5 -14.5h-44v181h47v130h-47v159z" />
    <glyph glyph-name="Ntilde" unicode="&#xd1;" horiz-adv-x="630" 
d="M327 0h242v724h-154l12 -562l-2 -2l-122 564h-242v-724h153l-10 564h2zM196 778q2 19 14 30t30 11q17 0 33.5 -5.5t34.5 -12t38 -12t44 -5.5q44 0 72 33.5t36 90.5h-65q-3 -20 -16.5 -31.5t-30.5 -11.5q-11 0 -26 6t-33 13t-38 13t-40 6q-52 0 -79 -34t-38 -91h64z" />
    <glyph glyph-name="Ograve" unicode="&#xd2;" horiz-adv-x="520" 
d="M303 150q0 -20 -10 -27t-33 -7t-33 7t-10 27v424q0 20 10 27t33 7t33 -7t10 -27v-424zM45 141q0 -44 14 -73t41.5 -46t67.5 -23.5t92 -6.5t92 6.5t67.5 23.5t41.5 46t14 73v442q0 44 -14 73t-41.5 46t-67.5 23.5t-92 6.5t-92 -6.5t-67.5 -23.5t-41.5 -46t-14 -73v-442z
M243 760h99l-92 148h-155z" />
    <glyph glyph-name="Oacute" unicode="&#xd3;" horiz-adv-x="520" 
d="M303 150q0 -20 -10 -27t-33 -7t-33 7t-10 27v424q0 20 10 27t33 7t33 -7t10 -27v-424zM45 141q0 -44 14 -73t41.5 -46t67.5 -23.5t92 -6.5t92 6.5t67.5 23.5t41.5 46t14 73v442q0 44 -14 73t-41.5 46t-67.5 23.5t-92 6.5t-92 -6.5t-67.5 -23.5t-41.5 -46t-14 -73v-442z
M178 760h99l148 148h-155z" />
    <glyph glyph-name="Ocircumflex" unicode="&#xd4;" horiz-adv-x="520" 
d="M303 150q0 -20 -10 -27t-33 -7t-33 7t-10 27v424q0 20 10 27t33 7t33 -7t10 -27v-424zM45 141q0 -44 14 -73t41.5 -46t67.5 -23.5t92 -6.5t92 6.5t67.5 23.5t41.5 46t14 73v442q0 44 -14 73t-41.5 46t-67.5 23.5t-92 6.5t-92 -6.5t-67.5 -23.5t-41.5 -46t-14 -73v-442z
M83 760h113l64 82l64 -82h113l-115 148h-124z" />
    <glyph glyph-name="Otilde" unicode="&#xd5;" horiz-adv-x="520" 
d="M303 150q0 -20 -10 -27t-33 -7t-33 7t-10 27v424q0 20 10 27t33 7t33 -7t10 -27v-424zM45 141q0 -44 14 -73t41.5 -46t67.5 -23.5t92 -6.5t92 6.5t67.5 23.5t41.5 46t14 73v442q0 44 -14 73t-41.5 46t-67.5 23.5t-92 6.5t-92 -6.5t-67.5 -23.5t-41.5 -46t-14 -73v-442z
M141 778q2 19 14 30t30 11q17 0 33.5 -5.5t34.5 -12t38 -12t44 -5.5q44 0 72 33.5t36 90.5h-65q-3 -20 -16.5 -31.5t-30.5 -11.5q-11 0 -26 6t-33 13t-38 13t-40 6q-52 0 -79 -34t-38 -91h64z" />
    <glyph glyph-name="Odieresis" unicode="&#xd6;" horiz-adv-x="520" 
d="M303 150q0 -20 -10 -27t-33 -7t-33 7t-10 27v424q0 20 10 27t33 7t33 -7t10 -27v-424zM45 141q0 -44 14 -73t41.5 -46t67.5 -23.5t92 -6.5t92 6.5t67.5 23.5t41.5 46t14 73v442q0 44 -14 73t-41.5 46t-67.5 23.5t-92 6.5t-92 -6.5t-67.5 -23.5t-41.5 -46t-14 -73v-442z
M96 765h130v118h-130v-118zM294 765h130v118h-130v-118z" />
    <glyph glyph-name="multiply" unicode="&#xd7;" horiz-adv-x="600" 
d="M223 253l-158 -158l77 -77l158 159l158 -159l77 77l-159 158l159 158l-77 77l-158 -158l-158 158l-77 -77z" />
    <glyph glyph-name="Oslash" unicode="&#xd8;" horiz-adv-x="520" 
d="M45 141q0 -39 12 -66l-52 -100l75 -41l41 79q25 -11 60 -16t79 -5q52 0 92 6.5t67.5 23.5t41.5 46t14 73v442q0 44 -13 70l53 99l-78 38l-41 -77q-25 11 -59 15t-77 4q-52 0 -92 -6.5t-67.5 -23.5t-41.5 -46t-14 -73v-442zM217 204l84 162h2v-216q0 -20 -10 -27t-33 -7
t-33 7t-10 27v54zM217 574q0 20 10 27t33 7t33 -7t10 -27v-50l-84 -162h-2v212z" />
    <glyph glyph-name="Ugrave" unicode="&#xd9;" horiz-adv-x="520" 
d="M470 724h-166v-556q0 -21 -9.5 -33.5t-34.5 -12.5t-34.5 12.5t-9.5 33.5v556h-166v-551q0 -60 14 -96t41 -55t66 -24.5t89 -5.5t89 5.5t66 24.5t41 55t14 96v551zM243 760h99l-92 148h-155z" />
    <glyph glyph-name="Uacute" unicode="&#xda;" horiz-adv-x="520" 
d="M470 724h-166v-556q0 -21 -9.5 -33.5t-34.5 -12.5t-34.5 12.5t-9.5 33.5v556h-166v-551q0 -60 14 -96t41 -55t66 -24.5t89 -5.5t89 5.5t66 24.5t41 55t14 96v551zM178 760h99l148 148h-155z" />
    <glyph glyph-name="Ucircumflex" unicode="&#xdb;" horiz-adv-x="520" 
d="M470 724h-166v-556q0 -21 -9.5 -33.5t-34.5 -12.5t-34.5 12.5t-9.5 33.5v556h-166v-551q0 -60 14 -96t41 -55t66 -24.5t89 -5.5t89 5.5t66 24.5t41 55t14 96v551zM83 760h113l64 82l64 -82h113l-115 148h-124z" />
    <glyph glyph-name="Udieresis" unicode="&#xdc;" horiz-adv-x="520" 
d="M470 724h-166v-556q0 -21 -9.5 -33.5t-34.5 -12.5t-34.5 12.5t-9.5 33.5v556h-166v-551q0 -60 14 -96t41 -55t66 -24.5t89 -5.5t89 5.5t66 24.5t41 55t14 96v551zM96 765h130v118h-130v-118zM294 765h130v118h-130v-118z" />
    <glyph glyph-name="Yacute" unicode="&#xdd;" 
d="M152 0h160v234l152 490h-164l-67 -326h-2l-67 326h-164l152 -490v-234zM150 760h99l148 148h-155z" />
    <glyph glyph-name="Thorn" unicode="&#xde;" horiz-adv-x="500" 
d="M55 0h166v126h56q56 0 94.5 9.5t62.5 33.5t34.5 66t10.5 107v126q0 99 -47.5 137.5t-137.5 38.5h-73v80h-166v-724zM221 514h48q22 0 30 -6.5t8 -24.5v-174q0 -30 -9.5 -41.5t-27.5 -11.5h-49v258z" />
    <glyph glyph-name="germandbls" unicode="&#xdf;" horiz-adv-x="481" 
d="M47 0h148v585q0 23 11.5 29t30.5 6q26 0 34.5 -9t8.5 -40v-64q0 -26 -10.5 -36.5t-41.5 -15.5v-124q40 -6 54 -23t14 -64v-66q0 -38 -8.5 -50t-31.5 -12q-8 0 -15 2l-14 4v-114q13 -8 30.5 -12t29.5 -4q52 0 83 15.5t47.5 40t21.5 55t5 60.5v85q0 38 -7.5 64.5t-24 44.5
t-41.5 28.5t-61 16.5v2q35 5 57 18t34 32.5t16.5 44.5t4.5 55q0 48 -10.5 82t-33 55.5t-58.5 31t-87 9.5q-99 0 -142.5 -40.5t-43.5 -122.5v-569z" />
    <glyph glyph-name="agrave" unicode="&#xe0;" horiz-adv-x="444" 
d="M45 364h130v28q0 14 9.5 20t26.5 6q38 0 38 -25v-113q-21 17 -46 25t-52 8q-30 0 -54 -7t-40.5 -24.5t-25 -47.5t-8.5 -77q0 -39 5 -70t18.5 -52t37.5 -32t62 -11q21 0 36 2t26.5 7.5t22 15.5t22.5 26h2v-43h142v374q0 47 -11 75.5t-34 43.5t-59 20t-85 5q-42 0 -73 -3.5
t-51 -13.5t-29.5 -27.5t-9.5 -45.5v-64zM177 176q0 26 9 34.5t27 8.5q22 0 29 -8.5t7 -28.5v-41q0 -15 -6.5 -26t-29.5 -11q-20 0 -27.5 9t-8.5 34v29zM205 576h99l-92 148h-155z" />
    <glyph glyph-name="aacute" unicode="&#xe1;" horiz-adv-x="444" 
d="M45 364h130v28q0 14 9.5 20t26.5 6q38 0 38 -25v-113q-21 17 -46 25t-52 8q-30 0 -54 -7t-40.5 -24.5t-25 -47.5t-8.5 -77q0 -39 5 -70t18.5 -52t37.5 -32t62 -11q21 0 36 2t26.5 7.5t22 15.5t22.5 26h2v-43h142v374q0 47 -11 75.5t-34 43.5t-59 20t-85 5q-42 0 -73 -3.5
t-51 -13.5t-29.5 -27.5t-9.5 -45.5v-64zM177 176q0 26 9 34.5t27 8.5q22 0 29 -8.5t7 -28.5v-41q0 -15 -6.5 -26t-29.5 -11q-20 0 -27.5 9t-8.5 34v29zM140 576h99l148 148h-155z" />
    <glyph glyph-name="acircumflex" unicode="&#xe2;" horiz-adv-x="444" 
d="M45 364h130v28q0 14 9.5 20t26.5 6q38 0 38 -25v-113q-21 17 -46 25t-52 8q-30 0 -54 -7t-40.5 -24.5t-25 -47.5t-8.5 -77q0 -39 5 -70t18.5 -52t37.5 -32t62 -11q21 0 36 2t26.5 7.5t22 15.5t22.5 26h2v-43h142v374q0 47 -11 75.5t-34 43.5t-59 20t-85 5q-42 0 -73 -3.5
t-51 -13.5t-29.5 -27.5t-9.5 -45.5v-64zM177 176q0 26 9 34.5t27 8.5q22 0 29 -8.5t7 -28.5v-41q0 -15 -6.5 -26t-29.5 -11q-20 0 -27.5 9t-8.5 34v29zM45 576h113l64 82l64 -82h113l-115 148h-124z" />
    <glyph glyph-name="atilde" unicode="&#xe3;" horiz-adv-x="444" 
d="M45 364h130v28q0 14 9.5 20t26.5 6q38 0 38 -25v-113q-21 17 -46 25t-52 8q-30 0 -54 -7t-40.5 -24.5t-25 -47.5t-8.5 -77q0 -39 5 -70t18.5 -52t37.5 -32t62 -11q21 0 36 2t26.5 7.5t22 15.5t22.5 26h2v-43h142v374q0 47 -11 75.5t-34 43.5t-59 20t-85 5q-42 0 -73 -3.5
t-51 -13.5t-29.5 -27.5t-9.5 -45.5v-64zM177 176q0 26 9 34.5t27 8.5q22 0 29 -8.5t7 -28.5v-41q0 -15 -6.5 -26t-29.5 -11q-20 0 -27.5 9t-8.5 34v29zM103 594q2 19 14 30t30 11q17 0 33.5 -5.5t34.5 -12t38 -12t44 -5.5q44 0 72 33.5t36 90.5h-65q-3 -20 -16.5 -31.5
t-30.5 -11.5q-11 0 -26 6t-33 13t-38 13t-40 6q-52 0 -79 -34t-38 -91h64z" />
    <glyph glyph-name="adieresis" unicode="&#xe4;" horiz-adv-x="444" 
d="M45 364h130v28q0 14 9.5 20t26.5 6q38 0 38 -25v-113q-21 17 -46 25t-52 8q-30 0 -54 -7t-40.5 -24.5t-25 -47.5t-8.5 -77q0 -39 5 -70t18.5 -52t37.5 -32t62 -11q21 0 36 2t26.5 7.5t22 15.5t22.5 26h2v-43h142v374q0 47 -11 75.5t-34 43.5t-59 20t-85 5q-42 0 -73 -3.5
t-51 -13.5t-29.5 -27.5t-9.5 -45.5v-64zM177 176q0 26 9 34.5t27 8.5q22 0 29 -8.5t7 -28.5v-41q0 -15 -6.5 -26t-29.5 -11q-20 0 -27.5 9t-8.5 34v29zM58 581h130v118h-130v-118zM256 581h130v118h-130v-118z" />
    <glyph glyph-name="aring" unicode="&#xe5;" horiz-adv-x="444" 
d="M45 364h130v28q0 14 9.5 20t26.5 6q38 0 38 -25v-113q-21 17 -46 25t-52 8q-30 0 -54 -7t-40.5 -24.5t-25 -47.5t-8.5 -77q0 -39 5 -70t18.5 -52t37.5 -32t62 -11q21 0 36 2t26.5 7.5t22 15.5t22.5 26h2v-43h142v374q0 47 -11 75.5t-34 43.5t-59 20t-85 5q-42 0 -73 -3.5
t-51 -13.5t-29.5 -27.5t-9.5 -45.5v-64zM177 176q0 26 9 34.5t27 8.5q22 0 29 -8.5t7 -28.5v-41q0 -15 -6.5 -26t-29.5 -11q-20 0 -27.5 9t-8.5 34v29zM115 683q0 -48 29.5 -77.5t77.5 -29.5t77.5 29.5t29.5 77.5q0 52 -31 79.5t-76 27.5t-76 -27.5t-31 -79.5zM175 683
q0 20 13.5 33.5t33.5 13.5t33.5 -13.5t13.5 -33.5t-13.5 -33.5t-33.5 -13.5t-33.5 13.5t-13.5 33.5z" />
    <glyph glyph-name="ae" unicode="&#xe6;" horiz-adv-x="667" 
d="M45 364h130v28q0 14 9.5 20t26.5 6q38 0 38 -25v-113q-21 17 -46 25t-52 8q-30 0 -54 -7t-40.5 -24.5t-25 -47.5t-8.5 -77q0 -39 5.5 -70t21.5 -52t46 -32t80 -11q57 0 84 12t38 44h2q11 -35 43.5 -45.5t91.5 -10.5q56 0 93.5 6.5t60 22t32 42t9.5 66.5v29h-150v-24
q0 -23 -10 -29.5t-30 -6.5q-28 0 -35.5 7.5t-7.5 27.5v86h233v158q0 30 -7.5 56t-29 44.5t-59.5 29.5t-99 11q-27 0 -58 -9t-48 -29q-17 38 -121 38q-42 0 -73 -3.5t-51 -13.5t-29.5 -27.5t-9.5 -45.5v-64zM177 176q0 26 9 34.5t27 8.5q22 0 29 -8.5t7 -28.5v-41
q0 -15 -6.5 -26t-29.5 -11q-20 0 -27.5 9t-8.5 34v29zM397 382q0 16 7.5 23t31.5 7q25 0 32.5 -7t7.5 -23v-69h-79v69z" />
    <glyph glyph-name="ccedilla" unicode="&#xe7;" horiz-adv-x="444" 
d="M37 154q0 -47 10.5 -77.5t31.5 -48.5t51.5 -26t70.5 -9l-55 -83l21 -24q20 8 43 8q18 0 29.5 -10.5t11.5 -24.5q0 -21 -13.5 -30t-31.5 -9q-23 0 -41.5 4t-42.5 12l-17 -39q22 -8 46.5 -16.5t60.5 -8.5q25 0 48.5 6t40.5 18t27.5 29.5t10.5 40.5q0 39 -27.5 58t-62.5 19
q-19 0 -31 -6l-2 2l38 54q52 1 82.5 11.5t46 30.5t20 49.5t4.5 69.5v45h-136v-48q0 -26 -9 -36.5t-31 -10.5t-31 10.5t-9 36.5v208q0 26 9 36.5t31 10.5t31 -10.5t9 -36.5v-26h130v87q0 31 -15.5 50t-39.5 29.5t-52.5 14.5t-54.5 4q-50 0 -88 -6t-63.5 -23.5t-38 -49.5
t-12.5 -83v-202z" />
    <glyph glyph-name="egrave" unicode="&#xe8;" 
d="M37 154q0 -51 12.5 -83t37.5 -49.5t61 -23.5t84 -6q56 0 93.5 6.5t60 22t32 42t9.5 66.5v29h-150v-24q0 -23 -10 -29.5t-32 -6.5q-29 0 -36.5 7.5t-7.5 27.5v86h236v158q0 30 -7.5 56t-29 44.5t-59.5 29.5t-99 11q-48 0 -84 -6t-61 -23.5t-37.5 -49.5t-12.5 -83v-202z
M191 388q0 16 7.5 23t33.5 7t33.5 -7t7.5 -23v-75h-82v75zM215 576h99l-92 148h-155z" />
    <glyph glyph-name="eacute" unicode="&#xe9;" 
d="M37 154q0 -51 12.5 -83t37.5 -49.5t61 -23.5t84 -6q56 0 93.5 6.5t60 22t32 42t9.5 66.5v29h-150v-24q0 -23 -10 -29.5t-32 -6.5q-29 0 -36.5 7.5t-7.5 27.5v86h236v158q0 30 -7.5 56t-29 44.5t-59.5 29.5t-99 11q-48 0 -84 -6t-61 -23.5t-37.5 -49.5t-12.5 -83v-202z
M191 388q0 16 7.5 23t33.5 7t33.5 -7t7.5 -23v-75h-82v75zM150 576h99l148 148h-155z" />
    <glyph glyph-name="ecircumflex" unicode="&#xea;" 
d="M37 154q0 -51 12.5 -83t37.5 -49.5t61 -23.5t84 -6q56 0 93.5 6.5t60 22t32 42t9.5 66.5v29h-150v-24q0 -23 -10 -29.5t-32 -6.5q-29 0 -36.5 7.5t-7.5 27.5v86h236v158q0 30 -7.5 56t-29 44.5t-59.5 29.5t-99 11q-48 0 -84 -6t-61 -23.5t-37.5 -49.5t-12.5 -83v-202z
M191 388q0 16 7.5 23t33.5 7t33.5 -7t7.5 -23v-75h-82v75zM55 576h113l64 82l64 -82h113l-115 148h-124z" />
    <glyph glyph-name="edieresis" unicode="&#xeb;" 
d="M37 154q0 -51 12.5 -83t37.5 -49.5t61 -23.5t84 -6q56 0 93.5 6.5t60 22t32 42t9.5 66.5v29h-150v-24q0 -23 -10 -29.5t-32 -6.5q-29 0 -36.5 7.5t-7.5 27.5v86h236v158q0 30 -7.5 56t-29 44.5t-59.5 29.5t-99 11q-48 0 -84 -6t-61 -23.5t-37.5 -49.5t-12.5 -83v-202z
M191 388q0 16 7.5 23t33.5 7t33.5 -7t7.5 -23v-75h-82v75zM68 581h130v118h-130v-118zM266 581h130v118h-130v-118z" />
    <glyph glyph-name="igrave" unicode="&#xec;" horiz-adv-x="242" 
d="M47 0h148v510h-148v-510zM104 576h99l-92 148h-155z" />
    <glyph glyph-name="iacute" unicode="&#xed;" horiz-adv-x="242" 
d="M47 0h148v510h-148v-510zM39 576h99l148 148h-155z" />
    <glyph glyph-name="icircumflex" unicode="&#xee;" horiz-adv-x="242" 
d="M47 0h148v510h-148v-510zM-56 576h113l64 82l64 -82h113l-115 148h-124z" />
    <glyph glyph-name="idieresis" unicode="&#xef;" horiz-adv-x="242" 
d="M47 0h148v510h-148v-510zM-43 581h130v118h-130v-118zM155 581h130v118h-130v-118z" />
    <glyph glyph-name="eth" unicode="&#xf0;" 
d="M37 154q0 -51 12.5 -83t37.5 -49.5t61 -23.5t84 -6t84 6t61 23.5t37.5 49.5t12.5 83v237q0 33 -1.5 66.5t-8.5 65.5t-20.5 61.5t-38.5 55.5l96 47l-33 51l-109 -51q-36 30 -80.5 43t-89.5 13l-65 -100q24 -2 47.5 -8t46.5 -15l-82 -39l33 -51l108 51q26 -22 37 -54
t13 -66l-2 1q-17 24 -43.5 32t-55.5 8q-72 0 -105 -39.5t-37 -106.5v-202zM191 353q0 23 9.5 30t31.5 7t31.5 -7t9.5 -30v-212q0 -23 -9.5 -30t-31.5 -7t-31.5 7t-9.5 30v212z" />
    <glyph glyph-name="ntilde" unicode="&#xf1;" 
d="M47 0h148v365q0 17 8 26t28 9q21 0 29.5 -9t8.5 -26v-365h148v401q0 33 -9 55.5t-24.5 36t-37 19.5t-45.5 6q-36 0 -62 -15t-42 -49h-2v56h-148v-510zM113 594q2 19 14 30t30 11q17 0 33.5 -5.5t34.5 -12t38 -12t44 -5.5q44 0 72 33.5t36 90.5h-65q-3 -20 -16.5 -31.5
t-30.5 -11.5q-11 0 -26 6t-33 13t-38 13t-40 6q-52 0 -79 -34t-38 -91h64z" />
    <glyph glyph-name="ograve" unicode="&#xf2;" 
d="M37 154q0 -51 12.5 -83t37.5 -49.5t61 -23.5t84 -6t84 6t61 23.5t37.5 49.5t12.5 83v202q0 51 -12.5 83t-37.5 49.5t-61 23.5t-84 6t-84 -6t-61 -23.5t-37.5 -49.5t-12.5 -83v-202zM191 369q0 23 9.5 30t31.5 7t31.5 -7t9.5 -30v-228q0 -23 -9.5 -30t-31.5 -7t-31.5 7
t-9.5 30v228zM215 576h99l-92 148h-155z" />
    <glyph glyph-name="oacute" unicode="&#xf3;" 
d="M37 154q0 -51 12.5 -83t37.5 -49.5t61 -23.5t84 -6t84 6t61 23.5t37.5 49.5t12.5 83v202q0 51 -12.5 83t-37.5 49.5t-61 23.5t-84 6t-84 -6t-61 -23.5t-37.5 -49.5t-12.5 -83v-202zM191 369q0 23 9.5 30t31.5 7t31.5 -7t9.5 -30v-228q0 -23 -9.5 -30t-31.5 -7t-31.5 7
t-9.5 30v228zM150 576h99l148 148h-155z" />
    <glyph glyph-name="ocircumflex" unicode="&#xf4;" 
d="M37 154q0 -51 12.5 -83t37.5 -49.5t61 -23.5t84 -6t84 6t61 23.5t37.5 49.5t12.5 83v202q0 51 -12.5 83t-37.5 49.5t-61 23.5t-84 6t-84 -6t-61 -23.5t-37.5 -49.5t-12.5 -83v-202zM191 369q0 23 9.5 30t31.5 7t31.5 -7t9.5 -30v-228q0 -23 -9.5 -30t-31.5 -7t-31.5 7
t-9.5 30v228zM55 576h113l64 82l64 -82h113l-115 148h-124z" />
    <glyph glyph-name="otilde" unicode="&#xf5;" 
d="M37 154q0 -51 12.5 -83t37.5 -49.5t61 -23.5t84 -6t84 6t61 23.5t37.5 49.5t12.5 83v202q0 51 -12.5 83t-37.5 49.5t-61 23.5t-84 6t-84 -6t-61 -23.5t-37.5 -49.5t-12.5 -83v-202zM191 369q0 23 9.5 30t31.5 7t31.5 -7t9.5 -30v-228q0 -23 -9.5 -30t-31.5 -7t-31.5 7
t-9.5 30v228zM113 594q2 19 14 30t30 11q17 0 33.5 -5.5t34.5 -12t38 -12t44 -5.5q44 0 72 33.5t36 90.5h-65q-3 -20 -16.5 -31.5t-30.5 -11.5q-11 0 -26 6t-33 13t-38 13t-40 6q-52 0 -79 -34t-38 -91h64z" />
    <glyph glyph-name="odieresis" unicode="&#xf6;" 
d="M37 154q0 -51 12.5 -83t37.5 -49.5t61 -23.5t84 -6t84 6t61 23.5t37.5 49.5t12.5 83v202q0 51 -12.5 83t-37.5 49.5t-61 23.5t-84 6t-84 -6t-61 -23.5t-37.5 -49.5t-12.5 -83v-202zM191 369q0 23 9.5 30t31.5 7t31.5 -7t9.5 -30v-228q0 -23 -9.5 -30t-31.5 -7t-31.5 7
t-9.5 30v228zM68 581h130v118h-130v-118zM266 581h130v118h-130v-118z" />
    <glyph glyph-name="divide" unicode="&#xf7;" horiz-adv-x="600" 
d="M47 197h506v112h-506v-112zM212 460q0 -37 26 -63t63 -26t63 26t26 63t-26 63t-63 26t-63 -26t-26 -63zM212 46q0 -37 26 -63t63 -26t63 26t26 63t-26 63t-63 26t-63 -26t-26 -63z" />
    <glyph glyph-name="oslash" unicode="&#xf8;" 
d="M191 369q0 23 9.5 30t31.5 7q21 0 30.5 -6.5t10.5 -27.5l-80 -124h-2v121zM273 141q0 -23 -9.5 -30t-31.5 -7q-20 0 -29 5.5t-11 23.5l79 123h2v-115zM37 154q0 -64 20 -97l-53 -77l66 -44l47 71q22 -9 51 -12t64 -3q48 0 84 6t61 23.5t37.5 49.5t12.5 83v202
q0 61 -19 96l52 78l-66 44l-44 -71q-22 8 -51.5 11.5t-66.5 3.5q-48 0 -84 -6t-61 -23.5t-37.5 -49.5t-12.5 -83v-202z" />
    <glyph glyph-name="ugrave" unicode="&#xf9;" 
d="M47 109q0 -33 9 -55.5t24.5 -36t37 -19.5t45.5 -6q36 0 62 15t42 49h2v-56h148v510h-148v-365q0 -17 -8 -26t-28 -9q-21 0 -29.5 9t-8.5 26v365h-148v-401zM215 576h99l-92 148h-155z" />
    <glyph glyph-name="uacute" unicode="&#xfa;" 
d="M47 109q0 -33 9 -55.5t24.5 -36t37 -19.5t45.5 -6q36 0 62 15t42 49h2v-56h148v510h-148v-365q0 -17 -8 -26t-28 -9q-21 0 -29.5 9t-8.5 26v365h-148v-401zM150 576h99l148 148h-155z" />
    <glyph glyph-name="ucircumflex" unicode="&#xfb;" 
d="M47 109q0 -33 9 -55.5t24.5 -36t37 -19.5t45.5 -6q36 0 62 15t42 49h2v-56h148v510h-148v-365q0 -17 -8 -26t-28 -9q-21 0 -29.5 9t-8.5 26v365h-148v-401zM55 576h113l64 82l64 -82h113l-115 148h-124z" />
    <glyph glyph-name="udieresis" unicode="&#xfc;" 
d="M47 109q0 -33 9 -55.5t24.5 -36t37 -19.5t45.5 -6q36 0 62 15t42 49h2v-56h148v510h-148v-365q0 -17 -8 -26t-28 -9q-21 0 -29.5 9t-8.5 26v365h-148v-401zM68 581h130v118h-130v-118zM266 581h130v118h-130v-118z" />
    <glyph glyph-name="yacute" unicode="&#xfd;" horiz-adv-x="408" 
d="M81 0h100q-4 -17 -5 -36t-9 -29q-10 -11 -22 -14t-22 -3q-13 0 -22.5 3t-18.5 5v-100q17 -8 36.5 -11t29.5 -3q33 0 60.5 4.5t48.5 18.5t35.5 39t20.5 66l85 570h-148l-45 -422h-2l-45 422h-148zM122 576h99l148 148h-155z" />
    <glyph glyph-name="thorn" unicode="&#xfe;" 
d="M195 372q0 28 34 28t34 -28v-234q0 -28 -33 -28q-35 0 -35 28v234zM47 -188h148v233h2q18 -26 43.5 -39.5t65.5 -13.5q24 0 44 5t35 17t23.5 31.5t8.5 49.5v284q0 39 -6 65.5t-20 43t-36.5 23.5t-56.5 7q-20 0 -35 -2t-27 -8.5t-21.5 -18.5t-17.5 -32h-2v267h-148v-912z
" />
    <glyph glyph-name="ydieresis" unicode="&#xff;" horiz-adv-x="408" 
d="M81 0h100q-4 -17 -5 -36t-9 -29q-10 -11 -22 -14t-22 -3q-13 0 -22.5 3t-18.5 5v-100q17 -8 36.5 -11t29.5 -3q33 0 60.5 4.5t48.5 18.5t35.5 39t20.5 66l85 570h-148l-45 -422h-2l-45 422h-148zM40 581h130v118h-130v-118zM238 581h130v118h-130v-118z" />
    <glyph glyph-name="exclam" unicode="!" horiz-adv-x="278" 
d="M65 222h148v502h-148v-502zM65 0h148v154h-148v-154z" />
    <glyph glyph-name="fraction" unicode="&#x2215;" horiz-adv-x="167" 
d="M-166 -8h104l395 740h-104z" />
    <glyph glyph-name="fi" unicode="&#xfb01;" horiz-adv-x="537" 
d="M10 398h42v-398h148v398h71v112h-71v77q0 21 14 30t38 9h7q4 0 7 -0.5t7 -1.5v104q-20 3 -40 3.5t-40 0.5q-29 0 -54.5 -8.5t-45 -24t-30.5 -37.5t-11 -50v-102h-42v-112zM342 0h148v510h-148v-510zM342 606h148v118h-148v-118z" />
    <glyph glyph-name="fl" unicode="&#xfb02;" horiz-adv-x="537" 
d="M342 0h148v724h-148v-724zM10 398h42v-398h148v398h71v112h-71v77q0 21 14 30t38 9h7q4 0 7 -0.5t7 -1.5v104q-20 3 -40 3.5t-40 0.5q-29 0 -54.5 -8.5t-45 -24t-30.5 -37.5t-11 -50v-102h-42v-112z" />
    <glyph glyph-name="breve" unicode="&#x2d8;" horiz-adv-x="242" 
d="M-46 724q9 -72 52 -108.5t115 -36.5t115 36.5t52 108.5h-64q-8 -40 -32 -54t-71 -15q-47 1 -71 15t-32 54h-64z" />
    <glyph glyph-name="dotaccent" unicode="&#x2d9;" horiz-adv-x="242" 
d="M56 606h130v118h-130v-118z" />
    <glyph glyph-name="ring" unicode="&#x2da;" horiz-adv-x="242" 
d="M14 683q0 -48 29.5 -77.5t77.5 -29.5t77.5 29.5t29.5 77.5q0 52 -31 79.5t-76 27.5t-76 -27.5t-31 -79.5zM74 683q0 20 13.5 33.5t33.5 13.5t33.5 -13.5t13.5 -33.5t-13.5 -33.5t-33.5 -13.5t-33.5 13.5t-13.5 33.5z" />
    <glyph glyph-name="hungarumlaut" unicode="&#x2dd;" horiz-adv-x="242" 
d="M-61 576h99l148 148h-155zM139 576h99l148 148h-155z" />
    <glyph glyph-name="ogonek" unicode="&#x2db;" horiz-adv-x="242" 
d="M232 -158q-12 -9 -24.5 -15.5t-30.5 -6.5q-24 0 -37 16t-13 41q0 16 6.5 33.5t16.5 33.5t22 30.5t23 25.5h-14q-18 -9 -39 -23t-39 -32.5t-30 -40.5t-12 -47q0 -42 21.5 -63.5t57.5 -21.5q15 0 29.5 5.5t27 13.5t23 17.5t17.5 17.5z" />
    <glyph glyph-name="caron" unicode="&#x2c7;" horiz-adv-x="242" 
d="M59 576h124l115 148h-113l-64 -82l-64 82h-113z" />
    <glyph glyph-name="Lslash" unicode="&#x141;" horiz-adv-x="407" 
d="M55 0h327v130h-161v223l110 68v93l-110 -68v278h-166v-369l-44 -27v-94l44 27v-261z" />
    <glyph glyph-name="dotlessi" unicode="&#x131;" horiz-adv-x="242" 
d="M47 0h148v510h-148v-510z" />
    <glyph glyph-name="lslash" unicode="&#x142;" horiz-adv-x="242" 
d="M47 0h148v364l45 28v94l-45 -28v266h-148v-348l-45 -28v-94l45 28v-282z" />
    <glyph glyph-name="minus" unicode="&#x2212;" horiz-adv-x="600" 
d="M47 197h506v112h-506v-112z" />
    <glyph glyph-name="notequal" unicode="&#x2260;" horiz-adv-x="593" 
d="M568 75v151h-211l45 90h166v152h-91l46 95l-132 66l-79 -161h-287v-152h212l-45 -90h-167v-151h92l-47 -96l133 -66l79 162h286z" />
    <glyph glyph-name="infinity" unicode="&#x221e;" horiz-adv-x="881" 
d="M836 274q0 45 -13.5 84t-39 67t-62.5 44t-84 16q-35 0 -63 -9.5t-51.5 -26.5t-43.5 -39.5t-39 -49.5q-19 26 -39 48.5t-43.5 39.5t-51 27t-62.5 10q-47 0 -84 -16t-62.5 -44t-39 -66.5t-13.5 -84.5q0 -47 14 -86t40 -68t64 -45t86 -16q33 0 59.5 9t49.5 25t43 37t39 45
q19 -24 39.5 -45.5t44.5 -37.5t52 -25t60 -9q48 0 85 16.5t62.5 46t39 69t13.5 84.5zM708 272q0 -34 -18.5 -57.5t-54.5 -23.5q-19 0 -35.5 7t-31.5 18t-28 25t-23 28q10 13 22.5 27.5t27 27t31 20.5t34.5 8q35 0 55.5 -22.5t20.5 -57.5zM363 269q-11 -14 -23 -27.5
t-26.5 -24.5t-31 -18t-35.5 -7q-35 0 -55 22.5t-20 56.5q0 32 19 56.5t54 24.5q18 0 35 -8t32 -20t28 -27t23 -28z" />
    <glyph glyph-name="lessequal" unicode="&#x2264;" horiz-adv-x="593" 
d="M568 125v156l-332 84l332 72v155l-543 -152v-150zM568 -51v152h-543v-152h543z" />
    <glyph glyph-name="greaterequal" unicode="&#x2265;" horiz-adv-x="593" 
d="M568 290v150l-543 152v-155l331 -72l-331 -84v-156zM568 -51v152h-543v-152h543z" />
    <glyph glyph-name="partialdiff" unicode="&#x2202;" horiz-adv-x="588" 
d="M544 358q0 67 -14 132t-46.5 116.5t-85.5 83t-132 31.5q-60 0 -106.5 -20.5t-90.5 -60.5l81 -91q26 25 54 41t66 16t62 -19.5t38 -49t19 -64t5 -64.5q-30 20 -59.5 31t-66.5 11q-49 0 -90 -17.5t-71 -48.5t-46.5 -73t-16.5 -90q0 -54 17.5 -97.5t49 -74t75.5 -47.5
t97 -17q80 0 130.5 34t79.5 87.5t40 119.5t11 131zM391 294q0 -27 -3.5 -61t-14.5 -64t-32.5 -51t-57.5 -21q-24 0 -42 10.5t-29.5 27t-17 38t-5.5 42.5q0 24 6.5 46t19.5 39.5t32.5 28t45.5 10.5q27 0 53 -13t45 -32z" />
    <glyph glyph-name="summation" unicode="&#x2211;" horiz-adv-x="698" 
d="M668 -214v150h-441l269 357l-253 343h413v150h-615v-131l277 -362l-289 -377v-130h639z" />
    <glyph glyph-name="product" unicode="&#x220f;" horiz-adv-x="757" 
d="M708 -214v1000h-659v-1000h153v851h354v-851h152z" />
    <glyph glyph-name="pi" unicode="&#x3c0;" horiz-adv-x="625" 
d="M600 20v110q-10 -4 -21 -8t-22 -4q-17 0 -25 7.5t-11 19t-2.5 24.5t0.5 25v164h81v137h-600v-137h70v-358h150v358h149v-222q0 -32 5.5 -59t20 -46t38.5 -29.5t61 -10.5q32 0 55 7.5t51 21.5z" />
    <glyph glyph-name="integral" unicode="&#x222b;" horiz-adv-x="657" 
d="M561 688q0 26 -13.5 44.5t-34 30t-44.5 17t-46 5.5q-69 0 -108 -30.5t-58 -77.5t-23 -103.5t-4 -108.5v-410q0 -42 4 -82t4 -82q0 -5 -0.5 -12t-2 -13t-6 -10.5t-11.5 -4.5q-14 0 -16.5 16t-7 35.5t-17 35.5t-45.5 16q-30 0 -49.5 -18t-19.5 -49q0 -27 13 -46t33 -31
t44 -18t47 -6q53 0 88 18t56.5 48.5t31.5 70t14 82t3.5 85.5t-0.5 80l-1 317q0 48 -4 96.5t-4 96.5q0 10 2.5 25t16.5 15t17.5 -16t8 -35.5t16.5 -35.5t45 -16q31 0 51 20t20 51z" />
    <glyph glyph-name="Omega" unicode="&#x3a9;" horiz-adv-x="776" 
d="M724 415q0 72 -26.5 129t-71.5 96.5t-105.5 60t-129.5 20.5q-70 0 -131.5 -20.5t-108 -59.5t-73.5 -96.5t-27 -131.5q0 -43 11 -83.5t32.5 -74t54 -58t75.5 -36.5v-21h-173v-140h299v218q-66 13 -97 62t-31 113q0 37 11.5 71t33 59.5t53 40.5t70.5 15t69.5 -14.5
t51.5 -39.5t31.5 -57.5t10.5 -69.5q0 -33 -7.5 -62.5t-23.5 -53.5t-40 -40.5t-58 -23.5v-218h299v140h-174v21q43 9 76 34.5t55 60.5t33 76t11 83z" />
    <glyph glyph-name="radical" unicode="&#x221a;" horiz-adv-x="603" 
d="M609 786h-161l-156 -767l-106 236l-193 -88l56 -118l57 27l142 -290h137z" />
    <glyph glyph-name="approxequal" unicode="&#x2248;" horiz-adv-x="593" 
d="M578 497h-99q-2 -24 -14.5 -39t-38.5 -15q-29 0 -60.5 9t-63.5 20t-64 20t-61 9q-39 0 -69 -20t-51 -50.5t-31.5 -67.5t-10.5 -71h98q2 22 16.5 38.5t37.5 16.5q28 0 60.5 -9.5t66 -21t65.5 -21t60 -9.5q39 0 68 21t48.5 52.5t30 68.5t12.5 69zM578 252h-100
q-5 -26 -16 -41t-40 -15q-19 0 -37 5.5t-35 10.5q-19 5 -42.5 12.5t-47.5 14.5t-47.5 12t-43.5 5q-36 0 -65 -21t-48.5 -52.5t-30 -68t-10.5 -67.5h98q2 22 15.5 38t37.5 16q23 0 56.5 -9.5t69.5 -21t70.5 -21t61.5 -9.5q40 0 68.5 21t46.5 52.5t27.5 68.5t11.5 70z" />
    <glyph glyph-name="Delta" unicode="&#x394;" horiz-adv-x="718" 
d="M706 0l-273 712h-170l-251 -712h694zM490 145h-270l130 396z" />
    <glyph glyph-name="lozenge" unicode="&#x25ca;" horiz-adv-x="593" 
d="M558 356l-194 391h-136l-193 -391l191 -391h138zM401 356l-105 -237l-106 237l106 237z" />
    <glyph glyph-name="apple" unicode="&#xf8ff;" horiz-adv-x="500" 
 />
    </font>
</defs>
</svg>
